LeagueGothic-Regular.ufo
<glyph name="exclam" format="2">
  <advance width="189"/>
  <unicode hex="0021"/>
  <outline>
    <contour>
      <point x="36" y="735" type="line"/>
      <point x="63" y="198" type="line"/>
      <point x="126" y="198" type="line"/>
      <point x="153" y="735" type="line"/>
    </contour>
    <contour>
      <point x="42" y="111" type="line"/>
      <point x="42" y="0" type="line"/>
      <point x="147" y="0" type="line"/>
      <point x="147" y="111" type="line"/>
    </contour>
  </outline>
</glyph>
<glyph name="percent" format="2">
  <advance width="489"/>
  <unicode hex="0025"/>
  <outline>
    <contour>
      <point x="182" y="445" type="curve" smooth="yes"/>
      <point x="182" y="658" type="line" smooth="yes"/>
      <point x="181" y="674"/>
      <point x="178" y="688"/>
      <point x="172" y="700" type="curve" smooth="yes"/>
      <point x="161" y="721"/>
      <point x="144" y="743"/>
      <point x="105" y="743" type="curve" smooth="yes"/>
      <point x="85" y="743"/>
      <point x="70" y="739"/>
      <point x="60" y="730" type="curve" smooth="yes"/>
      <point x="39" y="712"/>
      <point x="27" y="690"/>
      <point x="27" y="658" type="curve" smooth="yes"/>
      <point x="27" y="445" type="line" smooth="yes"/>
      <point x="27" y="428"/>
      <point x="30" y="414"/>
      <point x="36" y="402" type="curve" smooth="yes"/>
      <point x="47" y="379"/>
      <point x="65" y="359"/>
      <point x="105" y="359" type="curve" smooth="yes"/>
      <point x="124" y="359"/>
      <point x="139" y="363"/>
      <point x="149" y="372" type="curve" smooth="yes"/>
      <point x="169" y="389"/>
      <point x="181" y="412"/>
    </contour>
    <contour>
      <point x="77" y="0" type="line"/>
      <point x="144" y="0" type="line"/>
      <point x="411" y="735" type="line"/>
      <point x="347" y="735" type="line"/>
    </contour>
    <contour>
      <point x="122" y="658" type="curve" smooth="yes"/>
      <point x="122" y="445" type="line" smooth="yes"/>
      <point x="122" y="434"/>
      <point x="120" y="418"/>
      <point x="105" y="418" type="curve" smooth="yes"/>
      <point x="88" y="418"/>
      <point x="86" y="434"/>
      <point x="87" y="445" type="curve" smooth="yes"/>
      <point x="87" y="658" type="line" smooth="yes"/>
      <point x="86" y="663"/>
      <point x="87" y="667"/>
      <point x="88" y="671" type="curve" smooth="yes"/>
      <point x="91" y="678"/>
      <point x="94" y="685"/>
      <point x="105" y="685" type="curve" smooth="yes"/>
      <point x="110" y="685"/>
      <point x="113" y="684"/>
      <point x="115" y="681" type="curve" smooth="yes"/>
      <point x="119" y="675"/>
      <point x="122" y="667"/>
    </contour>
    <contour>
      <point x="463" y="77" type="curve" smooth="yes"/>
      <point x="463" y="290" type="line" smooth="yes"/>
      <point x="462" y="306"/>
      <point x="459" y="320"/>
      <point x="453" y="333" type="curve" smooth="yes"/>
      <point x="442" y="354"/>
      <point x="425" y="376"/>
      <point x="386" y="376" type="curve" smooth="yes"/>
      <point x="366" y="376"/>
      <point x="351" y="372"/>
      <point x="341" y="363" type="curve" smooth="yes"/>
      <point x="320" y="345"/>
      <point x="308" y="322"/>
      <point x="308" y="290" type="curve" smooth="yes"/>
      <point x="308" y="77" type="line" smooth="yes"/>
      <point x="308" y="60"/>
      <point x="311" y="46"/>
      <point x="317" y="34" type="curve" smooth="yes"/>
      <point x="328" y="13"/>
      <point x="346" y="-8"/>
      <point x="386" y="-8" type="curve" smooth="yes"/>
      <point x="405" y="-8"/>
      <point x="420" y="-4"/>
      <point x="430" y="5" type="curve" smooth="yes"/>
      <point x="450" y="22"/>
      <point x="462" y="44"/>
    </contour>
    <contour>
      <point x="403" y="290" type="curve" smooth="yes"/>
      <point x="403" y="77" type="line" smooth="yes"/>
      <point x="403" y="72"/>
      <point x="402" y="67"/>
      <point x="401" y="63" type="curve" smooth="yes"/>
      <point x="398" y="56"/>
      <point x="395" y="49"/>
      <point x="386" y="49" type="curve" smooth="yes"/>
      <point x="381" y="49"/>
      <point x="377" y="51"/>
      <point x="375" y="54" type="curve" smooth="yes"/>
      <point x="370" y="60"/>
      <point x="367" y="66"/>
      <point x="368" y="77" type="curve" smooth="yes"/>
      <point x="368" y="290" type="line" smooth="yes"/>
      <point x="367" y="295"/>
      <point x="368" y="299"/>
      <point x="369" y="303" type="curve" smooth="yes"/>
      <point x="372" y="310"/>
      <point x="375" y="317"/>
      <point x="386" y="317" type="curve" smooth="yes"/>
      <point x="391" y="317"/>
      <point x="394" y="316"/>
      <point x="396" y="313" type="curve" smooth="yes"/>
      <point x="400" y="307"/>
      <point x="403" y="299"/>
    </contour>
  </outline>
</glyph>
<glyph name="quotesingle" format="2">
  <advance width="151"/>
  <unicode hex="0027"/>
  <outline>
    <contour>
      <point x="43" y="466" type="line"/>
      <point x="118" y="466" type="line"/>
      <point x="133" y="735" type="line"/>
      <point x="28" y="735" type="line"/>
    </contour>
  </outline>
</glyph>
<glyph name="parenleft" format="2">
  <advance width="274"/>
  <unicode hex="0028"/>
  <outline>
    <contour>
      <point x="254" y="735" type="curve"/>
      <point x="175" y="776" type="line"/>
      <point x="148" y="734"/>
      <point x="124" y="688"/>
      <point x="103" y="639" type="curve" smooth="yes"/>
      <point x="67" y="555"/>
      <point x="32" y="440"/>
      <point x="32" y="315" type="curve" smooth="yes"/>
      <point x="32" y="252"/>
      <point x="39" y="193"/>
      <point x="54" y="138" type="curve" smooth="yes"/>
      <point x="83" y="26"/>
      <point x="122" y="-62"/>
      <point x="175" y="-145" type="curve"/>
      <point x="254" y="-104" type="line"/>
      <point x="230" y="-70"/>
      <point x="209" y="-31"/>
      <point x="191" y="12" type="curve" smooth="yes"/>
      <point x="159" y="87"/>
      <point x="128" y="190"/>
      <point x="128" y="315" type="curve" smooth="yes"/>
      <point x="128" y="378"/>
      <point x="135" y="435"/>
      <point x="148" y="486" type="curve" smooth="yes"/>
      <point x="174" y="588"/>
      <point x="206" y="666"/>
    </contour>
  </outline>
</glyph>
<glyph name="parenright" format="2">
  <advance width="274"/>
  <unicode hex="0029"/>
  <outline>
    <contour>
      <point x="99" y="776" type="curve"/>
      <point x="20" y="735" type="line"/>
      <point x="43" y="700"/>
      <point x="64" y="661"/>
      <point x="83" y="618" type="curve" smooth="yes"/>
      <point x="114" y="543"/>
      <point x="146" y="440"/>
      <point x="146" y="315" type="curve" smooth="yes"/>
      <point x="146" y="252"/>
      <point x="139" y="196"/>
      <point x="126" y="145" type="curve" smooth="yes"/>
      <point x="99" y="43"/>
      <point x="67" y="-36"/>
      <point x="20" y="-104" type="curve"/>
      <point x="99" y="-145" type="line"/>
      <point x="125" y="-104"/>
      <point x="149" y="-58"/>
      <point x="170" y="-9" type="curve" smooth="yes"/>
      <point x="206" y="75"/>
      <point x="242" y="190"/>
      <point x="242" y="315" type="curve" smooth="yes"/>
      <point x="242" y="378"/>
      <point x="235" y="437"/>
      <point x="220" y="493" type="curve" smooth="yes"/>
      <point x="190" y="604"/>
      <point x="151" y="692"/>
    </contour>
  </outline>
</glyph>
<glyph name="asterisk" format="2">
  <advance width="331"/>
  <unicode hex="002A"/>
  <outline>
    <contour>
      <point x="128" y="735" type="line"/>
      <point x="137" y="649" type="line"/>
      <point x="57" y="683" type="line"/>
      <point x="36" y="611" type="line"/>
      <point x="120" y="594" type="line"/>
      <point x="64" y="527" type="line"/>
      <point x="128" y="488" type="line"/>
      <point x="165" y="562" type="line"/>
      <point x="203" y="488" type="line"/>
      <point x="267" y="527" type="line"/>
      <point x="211" y="594" type="line"/>
      <point x="295" y="611" type="line"/>
      <point x="274" y="683" type="line"/>
      <point x="194" y="649" type="line"/>
      <point x="203" y="735" type="line"/>
    </contour>
  </outline>
</glyph>
<glyph name="hyphen" format="2">
  <advance width="217"/>
  <unicode hex="002D"/>
  <outline>
    <contour>
      <point x="36" y="317" type="line"/>
      <point x="36" y="222" type="line"/>
      <point x="181" y="222" type="line"/>
      <point x="181" y="317" type="line"/>
    </contour>
  </outline>
</glyph>
<glyph name="period" format="2">
  <advance width="157"/>
  <unicode hex="002E"/>
  <outline>
    <contour>
      <point x="26" y="111" type="line"/>
      <point x="26" y="0" type="line"/>
      <point x="131" y="0" type="line"/>
      <point x="131" y="111" type="line"/>
    </contour>
  </outline>
</glyph>
<glyph name="one" format="2">
  <advance width="232"/>
  <unicode hex="0031"/>
  <outline>
    <contour>
      <point x="12" y="576" type="line"/>
      <point x="84" y="576" type="line"/>
      <point x="84" y="0" type="line"/>
      <point x="192" y="0" type="line"/>
      <point x="192" y="735" type="line"/>
      <point x="127" y="735" type="line"/>
      <point x="121" y="722"/>
      <point x="113" y="709"/>
      <point x="103" y="697" type="curve" smooth="yes"/>
      <point x="84" y="677"/>
      <point x="57" y="654"/>
      <point x="12" y="645" type="curve"/>
    </contour>
  </outline>
</glyph>
<glyph name="four" format="2">
  <advance width="334"/>
  <unicode hex="0034"/>
  <outline>
    <contour>
      <point x="179" y="160" type="line"/>
      <point x="179" y="0" type="line"/>
      <point x="278" y="0" type="line"/>
      <point x="278" y="160" type="line"/>
      <point x="328" y="160" type="line"/>
      <point x="328" y="255" type="line"/>
      <point x="278" y="255" type="line"/>
      <point x="278" y="735" type="line"/>
      <point x="170" y="735" type="line"/>
      <point x="12" y="255" type="line"/>
      <point x="12" y="160" type="line"/>
    </contour>
    <contour>
      <point x="104" y="255" type="line"/>
      <point x="167" y="485" type="line"/>
      <point x="173" y="507" type="line"/>
      <point x="179" y="507" type="line"/>
      <point x="179" y="255" type="line"/>
    </contour>
  </outline>
</glyph>
<glyph name="five" format="2">
  <advance width="344"/>
  <unicode hex="0035"/>
  <outline>
    <contour>
      <point x="210" y="348" type="curve" smooth="yes"/>
      <point x="210" y="184" type="line" smooth="yes"/>
      <point x="210" y="147"/>
      <point x="207" y="121"/>
      <point x="202" y="107" type="curve" smooth="yes"/>
      <point x="197" y="93"/>
      <point x="188" y="86"/>
      <point x="177" y="86" type="curve" smooth="yes"/>
      <point x="164" y="86"/>
      <point x="156" y="93"/>
      <point x="151" y="108" type="curve" smooth="yes"/>
      <point x="146" y="122"/>
      <point x="144" y="148"/>
      <point x="144" y="185" type="curve" smooth="yes"/>
      <point x="144" y="214" type="line"/>
      <point x="36" y="214" type="line"/>
      <point x="36" y="165"/>
      <point x="38" y="110"/>
      <point x="57" y="67" type="curve" smooth="yes"/>
      <point x="76" y="23"/>
      <point x="110" y="-8"/>
      <point x="177" y="-8" type="curve" smooth="yes"/>
      <point x="242" y="-8"/>
      <point x="278" y="23"/>
      <point x="297" y="63" type="curve" smooth="yes"/>
      <point x="316" y="102"/>
      <point x="318" y="149"/>
      <point x="318" y="184" type="curve" smooth="yes"/>
      <point x="318" y="348" type="line" smooth="yes"/>
      <point x="318" y="360"/>
      <point x="316" y="398"/>
      <point x="300" y="433" type="curve" smooth="yes"/>
      <point x="284" y="468"/>
      <point x="254" y="500"/>
      <point x="198" y="500" type="curve" smooth="yes"/>
      <point x="191" y="501"/>
      <point x="183" y="500"/>
      <point x="176" y="497" type="curve" smooth="yes"/>
      <point x="161" y="492"/>
      <point x="148" y="484"/>
      <point x="136" y="475" type="curve"/>
      <point x="136" y="628" type="line"/>
      <point x="304" y="628" type="line"/>
      <point x="304" y="735" type="line"/>
      <point x="43" y="735" type="line"/>
      <point x="43" y="348" type="line"/>
      <point x="134" y="348" type="line"/>
      <point x="134" y="356"/>
      <point x="138" y="370"/>
      <point x="146" y="382" type="curve" smooth="yes"/>
      <point x="154" y="393"/>
      <point x="164" y="402"/>
      <point x="176" y="402" type="curve" smooth="yes"/>
      <point x="199" y="402"/>
      <point x="210" y="379"/>
    </contour>
  </outline>
</glyph>
<glyph name="colon" format="2">
  <advance width="177"/>
  <unicode hex="003A"/>
  <outline>
    <contour>
      <point x="36" y="547" type="line"/>
      <point x="36" y="436" type="line"/>
      <point x="141" y="436" type="line"/>
      <point x="141" y="547" type="line"/>
    </contour>
    <contour>
      <point x="36" y="111" type="line"/>
      <point x="36" y="0" type="line"/>
      <point x="141" y="0" type="line"/>
      <point x="141" y="111" type="line"/>
    </contour>
  </outline>
</glyph>
<glyph name="semicolon" format="2">
  <advance width="177"/>
  <unicode hex="003B"/>
  <outline>
    <contour>
      <point x="36" y="547" type="line"/>
      <point x="36" y="436" type="line"/>
      <point x="141" y="436" type="line"/>
      <point x="141" y="547" type="line"/>
    </contour>
    <contour>
      <point x="141" y="0" type="line"/>
      <point x="141" y="111" type="line"/>
      <point x="36" y="111" type="line"/>
      <point x="36" y="0" type="line"/>
      <point x="71" y="0" type="line"/>
      <point x="36" y="-130" type="line"/>
      <point x="86" y="-130" type="line"/>
    </contour>
  </outline>
</glyph>
<glyph name="less" format="2">
  <advance width="517"/>
  <unicode hex="003C"/>
  <outline>
    <contour>
      <point x="36" y="395" type="line"/>
      <point x="36" y="317" type="line"/>
      <point x="481" y="85" type="line"/>
      <point x="481" y="182" type="line"/>
      <point x="140" y="356" type="line"/>
      <point x="481" y="530" type="line"/>
      <point x="481" y="627" type="line"/>
    </contour>
  </outline>
</glyph>
<glyph name="equal" format="2">
  <advance width="517"/>
  <unicode hex="003D"/>
  <outline>
    <contour>
      <point x="36" y="506" type="line"/>
      <point x="36" y="422" type="line"/>
      <point x="481" y="422" type="line"/>
      <point x="481" y="506" type="line"/>
    </contour>
    <contour>
      <point x="36" y="317" type="line"/>
      <point x="36" y="233" type="line"/>
      <point x="481" y="233" type="line"/>
      <point x="481" y="317" type="line"/>
    </contour>
  </outline>
</glyph>
<glyph name="greater" format="2">
  <advance width="517"/>
  <unicode hex="003E"/>
  <outline>
    <contour>
      <point x="481" y="317" type="line"/>
      <point x="481" y="395" type="line"/>
      <point x="36" y="627" type="line"/>
      <point x="36" y="530" type="line"/>
      <point x="377" y="356" type="line"/>
      <point x="36" y="182" type="line"/>
      <point x="36" y="85" type="line"/>
    </contour>
  </outline>
</glyph>
<glyph name="E" format="2">
  <advance width="307"/>
  <unicode hex="0045"/>
  <outline>
    <contour>
      <point x="40" y="735" type="line"/>
      <point x="40" y="0" type="line"/>
      <point x="287" y="0" type="line"/>
      <point x="287" y="111" type="line"/>
      <point x="148" y="111" type="line"/>
      <point x="148" y="313" type="line"/>
      <point x="248" y="313" type="line"/>
      <point x="248" y="431" type="line"/>
      <point x="148" y="431" type="line"/>
      <point x="148" y="624" type="line"/>
      <point x="287" y="624" type="line"/>
      <point x="287" y="735" type="line"/>
    </contour>
  </outline>
</glyph>
<glyph name="F" format="2">
  <advance width="301"/>
  <unicode hex="0046"/>
  <outline>
    <contour>
      <point x="297" y="624" type="line"/>
      <point x="297" y="735" type="line"/>
      <point x="40" y="735" type="line"/>
      <point x="40" y="0" type="line"/>
      <point x="148" y="0" type="line"/>
      <point x="148" y="320" type="line"/>
      <point x="248" y="320" type="line"/>
      <point x="248" y="431" type="line"/>
      <point x="148" y="431" type="line"/>
      <point x="148" y="624" type="line"/>
    </contour>
  </outline>
</glyph>
<glyph name="J" format="2">
  <advance width="207"/>
  <unicode hex="004A"/>
  <outline>
    <contour>
      <point x="6" y="99" type="curve"/>
      <point x="6" y="-7" type="line"/>
      <point x="70" y="-11"/>
      <point x="112" y="5"/>
      <point x="137" y="32" type="curve" smooth="yes"/>
      <point x="162" y="59"/>
      <point x="172" y="96"/>
      <point x="172" y="136" type="curve" smooth="yes"/>
      <point x="172" y="735" type="line"/>
      <point x="64" y="735" type="line"/>
      <point x="64" y="153" type="line" smooth="yes"/>
      <point x="64" y="136"/>
      <point x="61" y="124"/>
      <point x="55" y="117" type="curve" smooth="yes"/>
      <point x="43" y="101"/>
      <point x="27" y="96"/>
    </contour>
  </outline>
</glyph>
<glyph name="L" format="2">
  <advance width="295"/>
  <unicode hex="004C"/>
  <outline>
    <contour>
      <point x="40" y="735" type="line"/>
      <point x="40" y="0" type="line"/>
      <point x="291" y="0" type="line"/>
      <point x="291" y="100" type="line"/>
      <point x="148" y="100" type="line"/>
      <point x="148" y="735" type="line"/>
    </contour>
  </outline>
</glyph>
<glyph name="M" format="2">
  <advance width="484"/>
  <unicode hex="004D"/>
  <outline>
    <contour>
      <point x="219" y="0" type="line"/>
      <point x="265" y="0" type="line"/>
      <point x="334" y="462" type="line"/>
      <point x="338" y="493" type="line"/>
      <point x="344" y="493" type="line"/>
      <point x="344" y="0" type="line"/>
      <point x="444" y="0" type="line"/>
      <point x="444" y="735" type="line"/>
      <point x="312" y="735" type="line"/>
      <point x="248" y="399" type="line"/>
      <point x="243" y="360" type="line"/>
      <point x="241" y="360" type="line"/>
      <point x="236" y="399" type="line"/>
      <point x="172" y="735" type="line"/>
      <point x="40" y="735" type="line"/>
      <point x="40" y="0" type="line"/>
      <point x="140" y="0" type="line"/>
      <point x="140" y="493" type="line"/>
      <point x="146" y="493" type="line"/>
      <point x="150" y="462" type="line"/>
    </contour>
  </outline>
</glyph>
<glyph name="N" format="2">
  <advance width="395"/>
  <unicode hex="004E"/>
  <outline>
    <contour>
      <point x="154" y="383" type="line"/>
      <point x="259" y="0" type="line"/>
      <point x="355" y="0" type="line"/>
      <point x="355" y="735" type="line"/>
      <point x="256" y="735" type="line"/>
      <point x="256" y="318" type="line"/>
      <point x="250" y="318" type="line"/>
      <point x="241" y="352" type="line"/>
      <point x="136" y="735" type="line"/>
      <point x="40" y="735" type="line"/>
      <point x="40" y="0" type="line"/>
      <point x="139" y="0" type="line"/>
      <point x="139" y="417" type="line"/>
      <point x="145" y="417" type="line"/>
    </contour>
  </outline>
</glyph>
<glyph name="P" format="2">
  <advance width="352"/>
  <unicode hex="0050"/>
  <outline>
    <contour>
      <point x="40" y="735" type="line"/>
      <point x="40" y="0" type="line"/>
      <point x="148" y="0" type="line"/>
      <point x="148" y="294" type="line"/>
      <point x="195" y="294"/>
      <point x="242" y="308"/>
      <point x="278" y="342" type="curve" smooth="yes"/>
      <point x="314" y="376"/>
      <point x="338" y="431"/>
      <point x="338" y="515" type="curve" smooth="yes"/>
      <point x="338" y="599"/>
      <point x="314" y="655"/>
      <point x="278" y="689" type="curve" smooth="yes"/>
      <point x="242" y="723"/>
      <point x="195" y="735"/>
      <point x="148" y="735" type="curve" smooth="yes"/>
    </contour>
    <contour>
      <point x="148" y="404" type="curve"/>
      <point x="148" y="625" type="line"/>
      <point x="181" y="625"/>
      <point x="202" y="617"/>
      <point x="214" y="599" type="curve" smooth="yes"/>
      <point x="226" y="581"/>
      <point x="229" y="552"/>
      <point x="229" y="511" type="curve" smooth="yes"/>
      <point x="229" y="470"/>
      <point x="226" y="443"/>
      <point x="214" y="427" type="curve" smooth="yes"/>
      <point x="202" y="410"/>
      <point x="181" y="404"/>
    </contour>
  </outline>
</glyph>
<glyph name="V" format="2">
  <advance width="350"/>
  <unicode hex="0056"/>
  <outline>
    <contour>
      <point x="236" y="735" type="line"/>
      <point x="182" y="331" type="line"/>
      <point x="178" y="300" type="line"/>
      <point x="172" y="300" type="line"/>
      <point x="168" y="331" type="line"/>
      <point x="114" y="735" type="line"/>
      <point x="9" y="735" type="line"/>
      <point x="121" y="0" type="line"/>
      <point x="229" y="0" type="line"/>
      <point x="341" y="735" type="line"/>
    </contour>
  </outline>
</glyph>
<glyph name="X" format="2">
  <advance width="360"/>
  <unicode hex="0058"/>
  <outline>
    <contour>
      <point x="114" y="0" type="line"/>
      <point x="176" y="219" type="line"/>
      <point x="178" y="228" type="line"/>
      <point x="182" y="228" type="line"/>
      <point x="184" y="219" type="line"/>
      <point x="246" y="0" type="line"/>
      <point x="352" y="0" type="line"/>
      <point x="233" y="386" type="line"/>
      <point x="350" y="735" type="line"/>
      <point x="244" y="735" type="line"/>
      <point x="185" y="549" type="line"/>
      <point x="182" y="540" type="line"/>
      <point x="178" y="540" type="line"/>
      <point x="175" y="549" type="line"/>
      <point x="116" y="735" type="line"/>
      <point x="10" y="735" type="line"/>
      <point x="127" y="386" type="line"/>
      <point x="8" y="0" type="line"/>
    </contour>
  </outline>
</glyph>
<glyph name="bracketleft" format="2">
  <advance width="263"/>
  <unicode hex="005B"/>
  <outline>
    <contour>
      <point x="235" y="639" type="line"/>
      <point x="235" y="735" type="line"/>
      <point x="40" y="735" type="line"/>
      <point x="40" y="-104" type="line"/>
      <point x="235" y="-104" type="line"/>
      <point x="235" y="-8" type="line"/>
      <point x="136" y="-8" type="line"/>
      <point x="136" y="639" type="line"/>
    </contour>
  </outline>
</glyph>
<glyph name="backslash" format="2">
  <advance width="387"/>
  <unicode hex="005C"/>
  <outline>
    <contour>
      <point x="383" y="-88" type="line"/>
      <point x="83" y="826" type="line"/>
      <point x="4" y="826" type="line"/>
      <point x="301" y="-88" type="line"/>
    </contour>
  </outline>
</glyph>
<glyph name="bracketright" format="2">
  <advance width="263"/>
  <unicode hex="005D"/>
  <outline>
    <contour>
      <point x="28" y="735" type="line"/>
      <point x="28" y="639" type="line"/>
      <point x="127" y="639" type="line"/>
      <point x="127" y="-8" type="line"/>
      <point x="28" y="-8" type="line"/>
      <point x="28" y="-104" type="line"/>
      <point x="223" y="-104" type="line"/>
      <point x="223" y="735" type="line"/>
    </contour>
  </outline>
</glyph>
<glyph name="asciicircum" format="2">
  <advance width="538"/>
  <unicode hex="005E"/>
  <outline>
    <contour>
      <point x="326" y="735" type="line"/>
      <point x="212" y="735" type="line"/>
      <point x="26" y="395" type="line"/>
      <point x="123" y="395" type="line"/>
      <point x="269" y="660" type="line"/>
      <point x="415" y="395" type="line"/>
      <point x="512" y="395" type="line"/>
    </contour>
  </outline>
</glyph>
<glyph name="underscore" format="2">
  <advance width="591"/>
  <unicode hex="005F"/>
  <outline>
    <contour>
      <point x="36" y="-75" type="line"/>
      <point x="36" y="-159" type="line"/>
      <point x="555" y="-159" type="line"/>
      <point x="555" y="-75" type="line"/>
    </contour>
  </outline>
</glyph>
<glyph name="d" format="2">
  <advance width="335"/>
  <unicode hex="0064"/>
  <outline>
    <contour>
      <point x="295" y="0" type="line"/>
      <point x="295" y="735" type="line"/>
      <point x="194" y="735" type="line"/>
      <point x="194" y="511" type="line"/>
      <point x="185" y="519"/>
      <point x="177" y="526"/>
      <point x="168" y="533" type="curve" smooth="yes"/>
      <point x="153" y="544"/>
      <point x="133" y="555"/>
      <point x="114" y="555" type="curve" smooth="yes"/>
      <point x="86" y="555"/>
      <point x="67" y="539"/>
      <point x="55" y="519" type="curve" smooth="yes"/>
      <point x="42" y="498"/>
      <point x="36" y="471"/>
      <point x="36" y="448" type="curve" smooth="yes"/>
      <point x="36" y="99" type="line" smooth="yes"/>
      <point x="36" y="76"/>
      <point x="42" y="49"/>
      <point x="55" y="29" type="curve" smooth="yes"/>
      <point x="67" y="8"/>
      <point x="86" y="-8"/>
      <point x="114" y="-8" type="curve" smooth="yes"/>
      <point x="123" y="-8"/>
      <point x="133" y="-6"/>
      <point x="143" y="-1" type="curve" smooth="yes"/>
      <point x="162" y="8"/>
      <point x="177" y="20"/>
      <point x="194" y="36" type="curve"/>
      <point x="194" y="0" type="line"/>
    </contour>
    <contour>
      <point x="194" y="427" type="curve" smooth="yes"/>
      <point x="194" y="120" type="line" smooth="yes"/>
      <point x="194" y="101"/>
      <point x="179" y="87"/>
      <point x="164" y="87" type="curve" smooth="yes"/>
      <point x="149" y="87"/>
      <point x="137" y="101"/>
      <point x="137" y="120" type="curve" smooth="yes"/>
      <point x="137" y="427" type="line" smooth="yes"/>
      <point x="137" y="446"/>
      <point x="149" y="460"/>
      <point x="164" y="460" type="curve" smooth="yes"/>
      <point x="179" y="460"/>
      <point x="194" y="443"/>
    </contour>
  </outline>
</glyph>
<glyph name="f" format="2">
  <advance width="232"/>
  <unicode hex="0066"/>
  <outline>
    <contour>
      <point x="61" y="0" type="line"/>
      <point x="162" y="0" type="line"/>
      <point x="162" y="456" type="line"/>
      <point x="213" y="456" type="line"/>
      <point x="213" y="547" type="line"/>
      <point x="162" y="547" type="line"/>
      <point x="162" y="561" type="line" smooth="yes"/>
      <point x="162" y="567"/>
      <point x="162" y="575"/>
      <point x="162" y="585" type="curve" smooth="yes"/>
      <point x="162" y="595"/>
      <point x="163" y="605"/>
      <point x="165" y="615" type="curve" smooth="yes"/>
      <point x="169" y="634"/>
      <point x="177" y="649"/>
      <point x="194" y="649" type="curve" smooth="yes"/>
      <point x="201" y="649"/>
      <point x="208" y="648"/>
      <point x="215" y="647" type="curve" smooth="yes"/>
      <point x="218" y="646"/>
      <point x="221" y="646"/>
      <point x="224" y="645" type="curve" smooth="yes"/>
      <point x="224" y="732" type="line"/>
      <point x="212" y="735" type="line" smooth="yes"/>
      <point x="204" y="738"/>
      <point x="193" y="739"/>
      <point x="177" y="739" type="curve" smooth="yes"/>
      <point x="118" y="739"/>
      <point x="90" y="709"/>
      <point x="76" y="672" type="curve" smooth="yes"/>
      <point x="62" y="635"/>
      <point x="61" y="590"/>
      <point x="61" y="562" type="curve" smooth="yes"/>
      <point x="61" y="547" type="line"/>
      <point x="10" y="547" type="line"/>
      <point x="10" y="456" type="line"/>
      <point x="61" y="456" type="line"/>
    </contour>
  </outline>
</glyph>
<glyph name="i" format="2">
  <advance width="181"/>
  <unicode hex="0069"/>
  <outline>
    <contour>
      <point x="40" y="735" type="line"/>
      <point x="40" y="634" type="line"/>
      <point x="141" y="634" type="line"/>
      <point x="141" y="735" type="line"/>
    </contour>
    <contour>
      <point x="40" y="0" type="line"/>
      <point x="141" y="0" type="line"/>
      <point x="141" y="547" type="line"/>
      <point x="40" y="547" type="line"/>
    </contour>
  </outline>
</glyph>
<glyph name="p" format="2">
  <advance width="335"/>
  <unicode hex="0070"/>
  <outline>
    <contour>
      <point x="40" y="547" type="line"/>
      <point x="40" y="-188" type="line"/>
      <point x="141" y="-188" type="line"/>
      <point x="141" y="36" type="line"/>
      <point x="150" y="28"/>
      <point x="158" y="21"/>
      <point x="167" y="14" type="curve" smooth="yes"/>
      <point x="182" y="3"/>
      <point x="202" y="-8"/>
      <point x="221" y="-8" type="curve" smooth="yes"/>
      <point x="249" y="-8"/>
      <point x="268" y="8"/>
      <point x="281" y="29" type="curve" smooth="yes"/>
      <point x="293" y="49"/>
      <point x="299" y="76"/>
      <point x="299" y="99" type="curve" smooth="yes"/>
      <point x="299" y="448" type="line" smooth="yes"/>
      <point x="299" y="471"/>
      <point x="293" y="498"/>
      <point x="281" y="519" type="curve" smooth="yes"/>
      <point x="268" y="539"/>
      <point x="249" y="555"/>
      <point x="221" y="555" type="curve" smooth="yes"/>
      <point x="212" y="555"/>
      <point x="202" y="553"/>
      <point x="193" y="548" type="curve" smooth="yes"/>
      <point x="173" y="539"/>
      <point x="158" y="527"/>
      <point x="141" y="511" type="curve"/>
      <point x="141" y="547" type="line"/>
    </contour>
    <contour>
      <point x="141" y="120" type="curve" smooth="yes"/>
      <point x="141" y="427" type="line" smooth="yes"/>
      <point x="141" y="446"/>
      <point x="156" y="460"/>
      <point x="171" y="460" type="curve" smooth="yes"/>
      <point x="186" y="460"/>
      <point x="198" y="446"/>
      <point x="198" y="427" type="curve" smooth="yes"/>
      <point x="198" y="120" type="line" smooth="yes"/>
      <point x="198" y="101"/>
      <point x="186" y="87"/>
      <point x="171" y="87" type="curve" smooth="yes"/>
      <point x="156" y="87"/>
      <point x="141" y="104"/>
    </contour>
  </outline>
</glyph>
<glyph name="r" format="2">
  <advance width="246"/>
  <unicode hex="0072"/>
  <outline>
    <contour>
      <point x="242" y="443" type="curve"/>
      <point x="242" y="555" type="line"/>
      <point x="205" y="555"/>
      <point x="181" y="541"/>
      <point x="165" y="526" type="curve" smooth="yes"/>
      <point x="149" y="510"/>
      <point x="142" y="493"/>
      <point x="141" y="486" type="curve" smooth="yes"/>
      <point x="141" y="547" type="line"/>
      <point x="40" y="547" type="line"/>
      <point x="40" y="0" type="line"/>
      <point x="141" y="0" type="line"/>
      <point x="141" y="380" type="line" smooth="yes"/>
      <point x="141" y="397"/>
      <point x="144" y="414"/>
      <point x="163" y="430" type="curve" smooth="yes"/>
      <point x="179" y="445"/>
      <point x="198" y="447"/>
      <point x="214" y="447" type="curve" smooth="yes"/>
      <point x="223" y="447"/>
      <point x="233" y="446"/>
    </contour>
  </outline>
</glyph>
<glyph name="v" format="2">
  <advance width="294"/>
  <unicode hex="0076"/>
  <outline>
    <contour>
      <point x="97" y="0" type="line"/>
      <point x="197" y="0" type="line"/>
      <point x="286" y="547" type="line"/>
      <point x="188" y="547" type="line"/>
      <point x="155" y="230" type="line"/>
      <point x="151" y="195" type="line"/>
      <point x="143" y="195" type="line"/>
      <point x="139" y="230" type="line"/>
      <point x="106" y="547" type="line"/>
      <point x="8" y="547" type="line"/>
    </contour>
  </outline>
</glyph>
<glyph name="x" format="2">
  <advance width="302"/>
  <unicode hex="0078"/>
  <outline>
    <contour>
      <point x="102" y="282" type="line"/>
      <point x="8" y="0" type="line"/>
      <point x="106" y="0" type="line"/>
      <point x="147" y="138" type="line"/>
      <point x="150" y="153" type="line"/>
      <point x="152" y="153" type="line"/>
      <point x="155" y="138" type="line"/>
      <point x="196" y="0" type="line"/>
      <point x="294" y="0" type="line"/>
      <point x="200" y="282" type="line"/>
      <point x="286" y="547" type="line"/>
      <point x="191" y="547" type="line"/>
      <point x="155" y="419" type="line"/>
      <point x="152" y="404" type="line"/>
      <point x="150" y="404" type="line"/>
      <point x="147" y="419" type="line"/>
      <point x="111" y="547" type="line"/>
      <point x="16" y="547" type="line"/>
    </contour>
  </outline>
</glyph>
<glyph name="z" format="2">
  <advance width="260"/>
  <unicode hex="007A"/>
  <outline>
    <contour>
      <point x="6" y="82" type="line"/>
      <point x="6" y="0" type="line"/>
      <point x="252" y="0" type="line"/>
      <point x="252" y="92" type="line"/>
      <point x="113" y="92" type="line"/>
      <point x="252" y="465" type="line"/>
      <point x="252" y="547" type="line"/>
      <point x="28" y="547" type="line"/>
      <point x="28" y="455" type="line"/>
      <point x="145" y="455" type="line"/>
    </contour>
  </outline>
</glyph>
<glyph name="asciitilde" format="2">
  <advance width="625"/>
  <unicode hex="007E"/>
  <outline>
    <contour>
      <point x="55" y="660" type="curve"/>
      <point x="121" y="632" type="line"/>
      <point x="127" y="649"/>
      <point x="135" y="663"/>
      <point x="144" y="676" type="curve" smooth="yes"/>
      <point x="160" y="699"/>
      <point x="184" y="720"/>
      <point x="219" y="720" type="curve" smooth="yes"/>
      <point x="250" y="720"/>
      <point x="278" y="703"/>
      <point x="306" y="684" type="curve" smooth="yes"/>
      <point x="345" y="659"/>
      <point x="383" y="635"/>
      <point x="439" y="635" type="curve" smooth="yes"/>
      <point x="466" y="635"/>
      <point x="490" y="643"/>
      <point x="510" y="658" type="curve" smooth="yes"/>
      <point x="549" y="689"/>
      <point x="577" y="729"/>
      <point x="598" y="786" type="curve"/>
      <point x="532" y="814" type="line"/>
      <point x="525" y="797"/>
      <point x="518" y="782"/>
      <point x="509" y="769" type="curve" smooth="yes"/>
      <point x="494" y="746"/>
      <point x="470" y="725"/>
      <point x="439" y="725" type="curve" smooth="yes"/>
      <point x="408" y="725"/>
      <point x="381" y="741"/>
      <point x="354" y="760" type="curve" smooth="yes"/>
      <point x="315" y="784"/>
      <point x="279" y="810"/>
      <point x="219" y="810" type="curve" smooth="yes"/>
      <point x="190" y="810"/>
      <point x="165" y="802"/>
      <point x="144" y="787" type="curve" smooth="yes"/>
      <point x="103" y="755"/>
      <point x="74" y="716"/>
    </contour>
  </outline>
</glyph>
<glyph name="exclamdown" format="2">
  <advance width="189"/>
  <unicode hex="00A1"/>
  <outline>
    <contour>
      <point x="42" y="547" type="line"/>
      <point x="42" y="436" type="line"/>
      <point x="147" y="436" type="line"/>
      <point x="147" y="547" type="line"/>
    </contour>
    <contour>
      <point x="63" y="349" type="line"/>
      <point x="36" y="-188" type="line"/>
      <point x="153" y="-188" type="line"/>
      <point x="126" y="349" type="line"/>
    </contour>
  </outline>
</glyph>
<glyph name="cent" format="2">
  <advance width="311"/>
  <unicode hex="00A2"/>
  <outline>
    <contour>
      <point x="194" y="765" type="line"/>
      <point x="134" y="765" type="line"/>
      <point x="134" y="647" type="line"/>
      <point x="74" y="638"/>
      <point x="32" y="594"/>
      <point x="32" y="487" type="curve" smooth="yes"/>
      <point x="32" y="248" type="line" smooth="yes"/>
      <point x="32" y="140"/>
      <point x="74" y="96"/>
      <point x="134" y="87" type="curve"/>
      <point x="134" y="-60" type="line"/>
      <point x="194" y="-60" type="line"/>
      <point x="194" y="88" type="line"/>
      <point x="255" y="97"/>
      <point x="287" y="139"/>
      <point x="287" y="243" type="curve" smooth="yes"/>
      <point x="287" y="296" type="line"/>
      <point x="195" y="296" type="line"/>
      <point x="195" y="220" type="line" smooth="yes"/>
      <point x="195" y="187"/>
      <point x="182" y="176"/>
      <point x="159" y="176" type="curve" smooth="yes"/>
      <point x="132" y="176"/>
      <point x="124" y="200"/>
      <point x="124" y="220" type="curve" smooth="yes"/>
      <point x="124" y="515" type="line" smooth="yes"/>
      <point x="124" y="535"/>
      <point x="132" y="559"/>
      <point x="159" y="559" type="curve" smooth="yes"/>
      <point x="182" y="559"/>
      <point x="195" y="548"/>
      <point x="195" y="515" type="curve" smooth="yes"/>
      <point x="195" y="449" type="line"/>
      <point x="287" y="449" type="line"/>
      <point x="287" y="492" type="line" smooth="yes"/>
      <point x="287" y="544"/>
      <point x="279" y="580"/>
      <point x="264" y="604" type="curve" smooth="yes"/>
      <point x="248" y="628"/>
      <point x="225" y="641"/>
      <point x="194" y="646" type="curve"/>
    </contour>
  </outline>
</glyph>
<glyph name="sterling" format="2">
  <advance width="399"/>
  <unicode hex="00A3"/>
  <outline>
    <contour>
      <point x="249" y="547" type="curve"/>
      <point x="353" y="547" type="line"/>
      <point x="353" y="596"/>
      <point x="345" y="646"/>
      <point x="321" y="683" type="curve" smooth="yes"/>
      <point x="297" y="719"/>
      <point x="256" y="744"/>
      <point x="191" y="743" type="curve" smooth="yes"/>
      <point x="136" y="742"/>
      <point x="101" y="718"/>
      <point x="78" y="683" type="curve" smooth="yes"/>
      <point x="55" y="648"/>
      <point x="47" y="602"/>
      <point x="47" y="561" type="curve" smooth="yes"/>
      <point x="47" y="520"/>
      <point x="66" y="457"/>
      <point x="85" y="394" type="curve" smooth="yes"/>
      <point x="88" y="384" type="line"/>
      <point x="16" y="384" type="line"/>
      <point x="16" y="317" type="line"/>
      <point x="108" y="317" type="line"/>
      <point x="117" y="286"/>
      <point x="123" y="257"/>
      <point x="123" y="232" type="curve" smooth="yes"/>
      <point x="123" y="204"/>
      <point x="116" y="166"/>
      <point x="105" y="135" type="curve"/>
      <point x="88" y="132"/>
      <point x="73" y="124"/>
      <point x="60" y="113" type="curve" smooth="yes"/>
      <point x="35" y="90"/>
      <point x="17" y="64"/>
      <point x="2" y="31" type="curve"/>
      <point x="73" y="-8" type="line"/>
      <point x="76" y="1"/>
      <point x="81" y="10"/>
      <point x="87" y="17" type="curve" smooth="yes"/>
      <point x="96" y="29"/>
      <point x="110" y="42"/>
      <point x="129" y="42" type="curve" smooth="yes"/>
      <point x="148" y="42"/>
      <point x="169" y="29"/>
      <point x="192" y="17" type="curve" smooth="yes"/>
      <point x="215" y="5"/>
      <point x="238" y="-8"/>
      <point x="262" y="-8" type="curve" smooth="yes"/>
      <point x="326" y="-8"/>
      <point x="377" y="55"/>
      <point x="385" y="178" type="curve"/>
      <point x="293" y="189" type="line"/>
      <point x="292" y="155"/>
      <point x="287" y="131"/>
      <point x="279" y="118" type="curve" smooth="yes"/>
      <point x="271" y="104"/>
      <point x="262" y="97"/>
      <point x="253" y="96" type="curve" smooth="yes"/>
      <point x="242" y="97"/>
      <point x="231" y="100"/>
      <point x="222" y="107" type="curve" smooth="yes"/>
      <point x="212" y="113"/>
      <point x="201" y="119"/>
      <point x="188" y="125" type="curve"/>
      <point x="207" y="164"/>
      <point x="216" y="205"/>
      <point x="216" y="232" type="curve" smooth="yes"/>
      <point x="216" y="255"/>
      <point x="212" y="284"/>
      <point x="204" y="317" type="curve"/>
      <point x="289" y="317" type="line"/>
      <point x="289" y="384" type="line"/>
      <point x="186" y="384" type="line"/>
      <point x="183" y="396" type="line" smooth="yes"/>
      <point x="166" y="452"/>
      <point x="149" y="508"/>
      <point x="149" y="561" type="curve" smooth="yes"/>
      <point x="149" y="580"/>
      <point x="151" y="600"/>
      <point x="159" y="616" type="curve" smooth="yes"/>
      <point x="166" y="632"/>
      <point x="177" y="643"/>
      <point x="193" y="643" type="curve" smooth="yes"/>
      <point x="216" y="643"/>
      <point x="230" y="632"/>
      <point x="238" y="614" type="curve" smooth="yes"/>
      <point x="246" y="596"/>
      <point x="249" y="571"/>
    </contour>
  </outline>
</glyph>
<glyph name="yen" format="2">
  <advance width="352"/>
  <unicode hex="00A5"/>
  <outline>
    <contour>
      <point x="36" y="233" type="line"/>
      <point x="36" y="166" type="line"/>
      <point x="122" y="166" type="line"/>
      <point x="122" y="0" type="line"/>
      <point x="230" y="0" type="line"/>
      <point x="230" y="166" type="line"/>
      <point x="316" y="166" type="line"/>
      <point x="316" y="233" type="line"/>
      <point x="230" y="233" type="line"/>
      <point x="230" y="300" type="line"/>
      <point x="316" y="300" type="line"/>
      <point x="316" y="367" type="line"/>
      <point x="244" y="367" type="line"/>
      <point x="340" y="735" type="line"/>
      <point x="234" y="735" type="line"/>
      <point x="180" y="500" type="line"/>
      <point x="177" y="493" type="line"/>
      <point x="175" y="493" type="line"/>
      <point x="172" y="500" type="line"/>
      <point x="118" y="735" type="line"/>
      <point x="12" y="735" type="line"/>
      <point x="108" y="367" type="line"/>
      <point x="36" y="367" type="line"/>
      <point x="36" y="300" type="line"/>
      <point x="122" y="300" type="line"/>
      <point x="122" y="233" type="line"/>
    </contour>
  </outline>
</glyph>
<glyph name="macron" format="2">
  <advance width="500"/>
  <unicode hex="00AF"/>
  <outline>
    <contour>
      <point x="153" y="721" type="line"/>
      <point x="153" y="642" type="line"/>
      <point x="347" y="642" type="line"/>
      <point x="347" y="721" type="line"/>
    </contour>
  </outline>
</glyph>
<glyph name="acute" format="2">
  <advance width="500"/>
  <unicode hex="00B4"/>
  <outline>
    <contour>
      <point x="357" y="727" type="line"/>
      <point x="252" y="727" type="line"/>
      <point x="200" y="637" type="line"/>
      <point x="278" y="637" type="line"/>
    </contour>
  </outline>
</glyph>
<glyph name="periodcentered" format="2">
  <advance width="105"/>
  <unicode hex="00B7"/>
  <outline>
    <contour>
      <point x="0" y="428" type="line"/>
      <point x="0" y="317" type="line"/>
      <point x="105" y="317" type="line"/>
      <point x="105" y="428" type="line"/>
    </contour>
  </outline>
</glyph>
<glyph name="cedilla" format="2">
  <advance width="500"/>
  <unicode hex="00B8"/>
  <outline>
    <contour>
      <point x="292" y="-123" type="line"/>
      <point x="292" y="-54" type="line"/>
      <point x="208" y="-54" type="line"/>
      <point x="208" y="-123" type="line"/>
      <point x="239" y="-123" type="line"/>
      <point x="219" y="-188" type="line"/>
      <point x="270" y="-188" type="line"/>
    </contour>
  </outline>
</glyph>
<glyph name="Aacute" format="2">
  <advance width="374"/>
  <unicode hex="00C1"/>
  <outline>
    <contour>
      <point x="300" y="890" type="line"/>
      <point x="195" y="890" type="line"/>
      <point x="143" y="800" type="line"/>
      <point x="221" y="800" type="line"/>
    </contour>
    <contour>
      <point x="10" y="0" type="line"/>
      <point x="115" y="0" type="line"/>
      <point x="135" y="150" type="line"/>
      <point x="239" y="150" type="line"/>
      <point x="259" y="0" type="line"/>
      <point x="364" y="0" type="line"/>
      <point x="253" y="735" type="line"/>
      <point x="121" y="735" type="line"/>
    </contour>
    <contour>
      <point x="193" y="496" type="line"/>
      <point x="224" y="264" type="line"/>
      <point x="150" y="264" type="line"/>
      <point x="181" y="496" type="line"/>
      <point x="184" y="515" type="line"/>
      <point x="190" y="515" type="line"/>
    </contour>
  </outline>
</glyph>
<glyph name="Adieresis" format="2">
  <advance width="374"/>
  <unicode hex="00C4"/>
  <outline>
    <contour>
      <point x="70" y="898" type="line"/>
      <point x="70" y="800" type="line"/>
      <point x="163" y="800" type="line"/>
      <point x="163" y="898" type="line"/>
    </contour>
    <contour>
      <point x="211" y="898" type="line"/>
      <point x="211" y="800" type="line"/>
      <point x="304" y="800" type="line"/>
      <point x="304" y="898" type="line"/>
    </contour>
    <contour>
      <point x="10" y="0" type="line"/>
      <point x="115" y="0" type="line"/>
      <point x="135" y="150" type="line"/>
      <point x="239" y="150" type="line"/>
      <point x="259" y="0" type="line"/>
      <point x="364" y="0" type="line"/>
      <point x="253" y="735" type="line"/>
      <point x="121" y="735" type="line"/>
    </contour>
    <contour>
      <point x="193" y="496" type="line"/>
      <point x="224" y="264" type="line"/>
      <point x="150" y="264" type="line"/>
      <point x="181" y="496" type="line"/>
      <point x="184" y="515" type="line"/>
      <point x="190" y="515" type="line"/>
    </contour>
  </outline>
</glyph>
<glyph name="Igrave" format="2">
  <advance width="196"/>
  <unicode hex="00CC"/>
  <outline>
    <contour>
      <point x="102" y="890" type="line"/>
      <point x="-3" y="890" type="line"/>
      <point x="76" y="800" type="line"/>
      <point x="154" y="800" type="line"/>
    </contour>
    <contour>
      <point x="48" y="735" type="line"/>
      <point x="48" y="0" type="line"/>
      <point x="156" y="0" type="line"/>
      <point x="156" y="735" type="line"/>
    </contour>
  </outline>
</glyph>
<glyph name="Iacute" format="2">
  <advance width="196"/>
  <unicode hex="00CD"/>
  <outline>
    <contour>
      <point x="199" y="890" type="line"/>
      <point x="94" y="890" type="line"/>
      <point x="42" y="800" type="line"/>
      <point x="120" y="800" type="line"/>
    </contour>
    <contour>
      <point x="40" y="735" type="line"/>
      <point x="40" y="0" type="line"/>
      <point x="148" y="0" type="line"/>
      <point x="148" y="735" type="line"/>
    </contour>
  </outline>
</glyph>
<glyph name="Icircumflex" format="2">
  <advance width="181"/>
  <unicode hex="00CE"/>
  <outline>
    <contour>
      <point x="144" y="890" type="line"/>
      <point x="37" y="890" type="line"/>
      <point x="-32" y="800" type="line"/>
      <point x="60" y="800" type="line"/>
      <point x="90" y="835" type="line"/>
      <point x="121" y="800" type="line"/>
      <point x="213" y="800" type="line"/>
    </contour>
    <contour>
      <point x="36" y="735" type="line"/>
      <point x="36" y="0" type="line"/>
      <point x="144" y="0" type="line"/>
      <point x="144" y="735" type="line"/>
    </contour>
  </outline>
</glyph>
<glyph name="Idieresis" format="2">
  <advance width="182"/>
  <unicode hex="00CF"/>
  <outline>
    <contour>
      <point x="-26" y="898" type="line"/>
      <point x="-26" y="800" type="line"/>
      <point x="67" y="800" type="line"/>
      <point x="67" y="898" type="line"/>
    </contour>
    <contour>
      <point x="115" y="898" type="line"/>
      <point x="115" y="800" type="line"/>
      <point x="208" y="800" type="line"/>
      <point x="208" y="898" type="line"/>
    </contour>
    <contour>
      <point x="37" y="735" type="line"/>
      <point x="37" y="0" type="line"/>
      <point x="145" y="0" type="line"/>
      <point x="145" y="735" type="line"/>
    </contour>
  </outline>
</glyph>
<glyph name="Eth" format="2">
  <advance width="372"/>
  <unicode hex="00D0"/>
  <outline>
    <contour>
      <point x="10" y="431" type="line"/>
      <point x="10" y="320" type="line"/>
      <point x="40" y="320" type="line"/>
      <point x="40" y="0" type="line"/>
      <point x="125" y="0" type="line" smooth="yes"/>
      <point x="225" y="0"/>
      <point x="279" y="20"/>
      <point x="308" y="76" type="curve" smooth="yes"/>
      <point x="336" y="132"/>
      <point x="340" y="223"/>
      <point x="340" y="367" type="curve" smooth="yes"/>
      <point x="340" y="511"/>
      <point x="336" y="603"/>
      <point x="308" y="659" type="curve" smooth="yes"/>
      <point x="279" y="715"/>
      <point x="225" y="735"/>
      <point x="125" y="735" type="curve" smooth="yes"/>
      <point x="40" y="735" type="line"/>
      <point x="40" y="431" type="line"/>
    </contour>
    <contour>
      <point x="148" y="431" type="line"/>
      <point x="148" y="627" type="line"/>
      <point x="185" y="627"/>
      <point x="206" y="623"/>
      <point x="217" y="588" type="curve" smooth="yes"/>
      <point x="222" y="570"/>
      <point x="226" y="544"/>
      <point x="227" y="510" type="curve" smooth="yes"/>
      <point x="228" y="475"/>
      <point x="228" y="428"/>
      <point x="228" y="368" type="curve" smooth="yes"/>
      <point x="228" y="308"/>
      <point x="228" y="261"/>
      <point x="227" y="226" type="curve" smooth="yes"/>
      <point x="226" y="191"/>
      <point x="222" y="165"/>
      <point x="217" y="148" type="curve" smooth="yes"/>
      <point x="206" y="112"/>
      <point x="185" y="108"/>
      <point x="148" y="108" type="curve"/>
      <point x="148" y="320" type="line"/>
      <point x="189" y="320" type="line"/>
      <point x="189" y="431" type="line"/>
    </contour>
  </outline>
</glyph>
<glyph name="Ntilde" format="2">
  <advance width="395"/>
  <unicode hex="00D1"/>
  <outline>
    <contour>
      <point x="101" y="871" type="curve"/>
      <point x="101" y="797" type="line"/>
      <point x="106" y="800"/>
      <point x="111" y="802"/>
      <point x="117" y="805" type="curve" smooth="yes"/>
      <point x="128" y="809"/>
      <point x="139" y="813"/>
      <point x="154" y="813" type="curve" smooth="yes"/>
      <point x="170" y="812"/>
      <point x="185" y="809"/>
      <point x="199" y="803" type="curve" smooth="yes"/>
      <point x="212" y="797"/>
      <point x="227" y="794"/>
      <point x="242" y="794" type="curve" smooth="yes"/>
      <point x="249" y="794"/>
      <point x="256" y="795"/>
      <point x="262" y="797" type="curve" smooth="yes"/>
      <point x="274" y="800"/>
      <point x="286" y="805"/>
      <point x="295" y="813" type="curve"/>
      <point x="295" y="887" type="line"/>
      <point x="290" y="884"/>
      <point x="285" y="882"/>
      <point x="279" y="879" type="curve" smooth="yes"/>
      <point x="268" y="875"/>
      <point x="257" y="871"/>
      <point x="242" y="871" type="curve" smooth="yes"/>
      <point x="227" y="872"/>
      <point x="212" y="876"/>
      <point x="198" y="882" type="curve" smooth="yes"/>
      <point x="184" y="887"/>
      <point x="169" y="890"/>
      <point x="154" y="890" type="curve" smooth="yes"/>
      <point x="147" y="890"/>
      <point x="140" y="889"/>
      <point x="134" y="887" type="curve" smooth="yes"/>
      <point x="122" y="883"/>
      <point x="110" y="878"/>
    </contour>
    <contour>
      <point x="154" y="383" type="line"/>
      <point x="259" y="0" type="line"/>
      <point x="355" y="0" type="line"/>
      <point x="355" y="735" type="line"/>
      <point x="256" y="735" type="line"/>
      <point x="256" y="318" type="line"/>
      <point x="250" y="318" type="line"/>
      <point x="241" y="352" type="line"/>
      <point x="136" y="735" type="line"/>
      <point x="40" y="735" type="line"/>
      <point x="40" y="0" type="line"/>
      <point x="139" y="0" type="line"/>
      <point x="139" y="417" type="line"/>
      <point x="145" y="417" type="line"/>
    </contour>
  </outline>
</glyph>
<glyph name="Thorn" format="2">
  <advance width="354"/>
  <unicode hex="00DE"/>
  <outline>
    <contour>
      <point x="40" y="735" type="line"/>
      <point x="40" y="0" type="line"/>
      <point x="148" y="0" type="line"/>
      <point x="148" y="176" type="line"/>
      <point x="195" y="176"/>
      <point x="242" y="190"/>
      <point x="278" y="224" type="curve" smooth="yes"/>
      <point x="314" y="258"/>
      <point x="338" y="313"/>
      <point x="338" y="397" type="curve" smooth="yes"/>
      <point x="338" y="481"/>
      <point x="314" y="537"/>
      <point x="278" y="571" type="curve" smooth="yes"/>
      <point x="242" y="605"/>
      <point x="195" y="617"/>
      <point x="148" y="617" type="curve" smooth="yes"/>
      <point x="147" y="617" type="line"/>
      <point x="147" y="735" type="line"/>
    </contour>
    <contour>
      <point x="148" y="286" type="curve"/>
      <point x="148" y="507" type="line"/>
      <point x="181" y="507"/>
      <point x="202" y="499"/>
      <point x="214" y="481" type="curve" smooth="yes"/>
      <point x="226" y="463"/>
      <point x="229" y="434"/>
      <point x="229" y="393" type="curve" smooth="yes"/>
      <point x="229" y="352"/>
      <point x="226" y="325"/>
      <point x="214" y="309" type="curve" smooth="yes"/>
      <point x="202" y="292"/>
      <point x="181" y="286"/>
    </contour>
  </outline>
</glyph>
<glyph name="germandbls" format="2">
  <advance width="358"/>
  <unicode hex="00DF"/>
  <outline>
    <contour>
      <point x="169" y="547" type="curve"/>
      <point x="169" y="478" type="line"/>
      <point x="189" y="478"/>
      <point x="206" y="471"/>
      <point x="216" y="443" type="curve" smooth="yes"/>
      <point x="226" y="415"/>
      <point x="231" y="366"/>
      <point x="231" y="281" type="curve" smooth="yes"/>
      <point x="231" y="201"/>
      <point x="226" y="154"/>
      <point x="216" y="127" type="curve" smooth="yes"/>
      <point x="206" y="100"/>
      <point x="189" y="94"/>
      <point x="169" y="94" type="curve"/>
      <point x="169" y="0" type="line"/>
      <point x="221" y="0"/>
      <point x="262" y="9"/>
      <point x="290" y="49" type="curve" smooth="yes"/>
      <point x="318" y="89"/>
      <point x="332" y="160"/>
      <point x="332" y="281" type="curve" smooth="yes"/>
      <point x="332" y="354"/>
      <point x="325" y="408"/>
      <point x="312" y="446" type="curve" smooth="yes"/>
      <point x="299" y="484"/>
      <point x="281" y="506"/>
      <point x="258" y="519" type="curve"/>
      <point x="285" y="539"/>
      <point x="301" y="568"/>
      <point x="301" y="604" type="curve" smooth="yes"/>
      <point x="301" y="641"/>
      <point x="290" y="677"/>
      <point x="269" y="702" type="curve" smooth="yes"/>
      <point x="248" y="727"/>
      <point x="214" y="743"/>
      <point x="169" y="743" type="curve" smooth="yes"/>
      <point x="121" y="743"/>
      <point x="88" y="726"/>
      <point x="65" y="701" type="curve" smooth="yes"/>
      <point x="42" y="676"/>
      <point x="32" y="640"/>
      <point x="32" y="603" type="curve" smooth="yes"/>
      <point x="32" y="0" type="line"/>
      <point x="133" y="0" type="line"/>
      <point x="133" y="603" type="line" smooth="yes"/>
      <point x="133" y="630"/>
      <point x="144" y="653"/>
      <point x="169" y="653" type="curve" smooth="yes"/>
      <point x="198" y="653"/>
      <point x="211" y="631"/>
      <point x="211" y="604" type="curve" smooth="yes"/>
      <point x="211" y="569"/>
      <point x="192" y="547"/>
    </contour>
  </outline>
</glyph>
<glyph name="igrave" format="2">
  <advance width="181"/>
  <unicode hex="00EC"/>
  <outline>
    <contour>
      <point x="89" y="727" type="line"/>
      <point x="-16" y="727" type="line"/>
      <point x="63" y="637" type="line"/>
      <point x="141" y="637" type="line"/>
    </contour>
    <contour>
      <point x="40" y="0" type="line"/>
      <point x="141" y="0" type="line"/>
      <point x="141" y="547" type="line"/>
      <point x="40" y="547" type="line"/>
    </contour>
  </outline>
</glyph>
<glyph name="iacute" format="2">
  <advance width="181"/>
  <unicode hex="00ED"/>
  <outline>
    <contour>
      <point x="197" y="727" type="line"/>
      <point x="92" y="727" type="line"/>
      <point x="40" y="637" type="line"/>
      <point x="118" y="637" type="line"/>
    </contour>
    <contour>
      <point x="40" y="0" type="line"/>
      <point x="141" y="0" type="line"/>
      <point x="141" y="547" type="line"/>
      <point x="40" y="547" type="line"/>
    </contour>
  </outline>
</glyph>
<glyph name="icircumflex" format="2">
  <advance width="181"/>
  <unicode hex="00EE"/>
  <outline>
    <contour>
      <point x="144" y="727" type="line"/>
      <point x="37" y="727" type="line"/>
      <point x="-32" y="637" type="line"/>
      <point x="60" y="637" type="line"/>
      <point x="90" y="672" type="line"/>
      <point x="121" y="637" type="line"/>
      <point x="213" y="637" type="line"/>
    </contour>
    <contour>
      <point x="40" y="0" type="line"/>
      <point x="141" y="0" type="line"/>
      <point x="141" y="547" type="line"/>
      <point x="40" y="547" type="line"/>
    </contour>
  </outline>
</glyph>
<glyph name="oslash" format="2">
  <advance width="321"/>
  <unicode hex="00F8"/>
  <outline>
    <contour>
      <point x="61" y="-38" type="line"/>
      <point x="100" y="-38" type="line"/>
      <point x="110" y="0" type="line"/>
      <point x="125" y="-5"/>
      <point x="141" y="-8"/>
      <point x="160" y="-8" type="curve" smooth="yes"/>
      <point x="193" y="-8"/>
      <point x="218" y="-1"/>
      <point x="236" y="14" type="curve" smooth="yes"/>
      <point x="271" y="43"/>
      <point x="287" y="80"/>
      <point x="290" y="133" type="curve" smooth="yes"/>
      <point x="290" y="414" type="line" smooth="yes"/>
      <point x="289" y="428"/>
      <point x="287" y="442"/>
      <point x="284" y="455" type="curve" smooth="yes"/>
      <point x="277" y="478"/>
      <point x="267" y="505"/>
      <point x="244" y="526" type="curve"/>
      <point x="259" y="585" type="line"/>
      <point x="222" y="585" type="line"/>
      <point x="212" y="546" type="line"/>
      <point x="197" y="551"/>
      <point x="180" y="555"/>
      <point x="160" y="555" type="curve" smooth="yes"/>
      <point x="127" y="555"/>
      <point x="102" y="548"/>
      <point x="85" y="533" type="curve" smooth="yes"/>
      <point x="50" y="503"/>
      <point x="34" y="464"/>
      <point x="31" y="411" type="curve" smooth="yes"/>
      <point x="31" y="136" type="line" smooth="yes"/>
      <point x="31" y="121"/>
      <point x="33" y="107"/>
      <point x="36" y="94" type="curve" smooth="yes"/>
      <point x="41" y="70"/>
      <point x="53" y="42"/>
      <point x="76" y="21" type="curve"/>
    </contour>
    <contour>
      <point x="126" y="213" type="line"/>
      <point x="126" y="411" type="line" smooth="yes"/>
      <point x="125" y="422"/>
      <point x="126" y="431"/>
      <point x="129" y="439" type="curve" smooth="yes"/>
      <point x="133" y="454"/>
      <point x="141" y="467"/>
      <point x="160" y="467" type="curve" smooth="yes"/>
      <point x="175" y="467"/>
      <point x="182" y="461"/>
      <point x="187" y="450" type="curve"/>
    </contour>
    <contour>
      <point x="195" y="333" type="line"/>
      <point x="195" y="136" type="line" smooth="yes"/>
      <point x="196" y="125"/>
      <point x="195" y="116"/>
      <point x="192" y="108" type="curve" smooth="yes"/>
      <point x="188" y="93"/>
      <point x="179" y="81"/>
      <point x="160" y="81" type="curve" smooth="yes"/>
      <point x="148" y="81"/>
      <point x="139" y="86"/>
      <point x="134" y="96" type="curve"/>
    </contour>
  </outline>
</glyph>
<glyph name="Aogonek" format="2">
  <advance width="374"/>
  <unicode hex="0104"/>
  <outline>
    <contour>
      <point x="364" y="0" type="line"/>
      <point x="317" y="0" type="line"/>
      <point x="300" y="-15"/>
      <point x="288" y="-30"/>
      <point x="279" y="-50" type="curve" smooth="yes"/>
      <point x="274" y="-60"/>
      <point x="272" y="-71"/>
      <point x="272" y="-83" type="curve" smooth="yes"/>
      <point x="272" y="-112"/>
      <point x="299" y="-121"/>
      <point x="322" y="-121" type="curve" smooth="yes"/>
      <point x="339" y="-121"/>
      <point x="352" y="-117"/>
      <point x="364" y="-112" type="curve"/>
      <point x="356" y="-179" type="line"/>
      <point x="335" y="-186"/>
      <point x="322" y="-188"/>
      <point x="305" y="-188" type="curve" smooth="yes"/>
      <point x="240" y="-188"/>
      <point x="203" y="-148"/>
      <point x="203" y="-103" type="curve" smooth="yes"/>
      <point x="203" y="-75"/>
      <point x="219" y="-50"/>
      <point x="236" y="-31" type="curve" smooth="yes"/>
      <point x="245" y="-20"/>
      <point x="256" y="-9"/>
      <point x="269" y="0" type="curve"/>
      <point x="259" y="0" type="line"/>
      <point x="239" y="150" type="line"/>
      <point x="135" y="150" type="line"/>
      <point x="115" y="0" type="line"/>
      <point x="10" y="0" type="line"/>
      <point x="121" y="735" type="line"/>
      <point x="253" y="735" type="line"/>
    </contour>
    <contour>
      <point x="150" y="264" type="line"/>
      <point x="224" y="264" type="line"/>
      <point x="193" y="496" type="line"/>
      <point x="190" y="515" type="line"/>
      <point x="184" y="515" type="line"/>
      <point x="181" y="496" type="line"/>
    </contour>
  </outline>
</glyph>
<glyph name="dcaron" format="2">
  <advance width="486"/>
  <unicode hex="010F"/>
  <outline>
    <contour>
      <point x="295" y="0" type="line"/>
      <point x="295" y="735" type="line"/>
      <point x="194" y="735" type="line"/>
      <point x="194" y="511" type="line"/>
      <point x="185" y="519"/>
      <point x="177" y="526"/>
      <point x="168" y="533" type="curve" smooth="yes"/>
      <point x="153" y="544"/>
      <point x="133" y="555"/>
      <point x="114" y="555" type="curve" smooth="yes"/>
      <point x="86" y="555"/>
      <point x="67" y="539"/>
      <point x="55" y="519" type="curve" smooth="yes"/>
      <point x="42" y="498"/>
      <point x="36" y="471"/>
      <point x="36" y="448" type="curve" smooth="yes"/>
      <point x="36" y="99" type="line" smooth="yes"/>
      <point x="36" y="76"/>
      <point x="42" y="49"/>
      <point x="55" y="29" type="curve" smooth="yes"/>
      <point x="67" y="8"/>
      <point x="86" y="-8"/>
      <point x="114" y="-8" type="curve" smooth="yes"/>
      <point x="123" y="-8"/>
      <point x="133" y="-6"/>
      <point x="143" y="-1" type="curve" smooth="yes"/>
      <point x="162" y="8"/>
      <point x="177" y="20"/>
      <point x="194" y="36" type="curve"/>
      <point x="194" y="0" type="line"/>
    </contour>
    <contour>
      <point x="462" y="624" type="line"/>
      <point x="462" y="735" type="line"/>
      <point x="357" y="735" type="line"/>
      <point x="357" y="624" type="line"/>
      <point x="392" y="624" type="line"/>
      <point x="357" y="494" type="line"/>
      <point x="407" y="494" type="line"/>
    </contour>
    <contour>
      <point x="194" y="427" type="curve" smooth="yes"/>
      <point x="194" y="120" type="line" smooth="yes"/>
      <point x="194" y="101"/>
      <point x="179" y="87"/>
      <point x="164" y="87" type="curve" smooth="yes"/>
      <point x="149" y="87"/>
      <point x="137" y="101"/>
      <point x="137" y="120" type="curve" smooth="yes"/>
      <point x="137" y="427" type="line" smooth="yes"/>
      <point x="137" y="446"/>
      <point x="149" y="460"/>
      <point x="164" y="460" type="curve" smooth="yes"/>
      <point x="179" y="460"/>
      <point x="194" y="443"/>
    </contour>
  </outline>
</glyph>
<glyph name="emacron" format="2">
  <advance width="322"/>
  <unicode hex="0113"/>
  <outline>
    <contour>
      <point x="65" y="721" type="line"/>
      <point x="65" y="642" type="line"/>
      <point x="259" y="642" type="line"/>
      <point x="259" y="721" type="line"/>
    </contour>
    <contour>
      <point x="293" y="196" type="line"/>
      <point x="199" y="196" type="line"/>
      <point x="199" y="136" type="line" smooth="yes"/>
      <point x="199" y="125"/>
      <point x="198" y="116"/>
      <point x="195" y="108" type="curve" smooth="yes"/>
      <point x="191" y="93"/>
      <point x="182" y="81"/>
      <point x="163" y="81" type="curve" smooth="yes"/>
      <point x="154" y="81"/>
      <point x="147" y="84"/>
      <point x="142" y="89" type="curve" smooth="yes"/>
      <point x="133" y="100"/>
      <point x="127" y="115"/>
      <point x="126" y="136" type="curve" smooth="yes"/>
      <point x="126" y="255" type="line"/>
      <point x="293" y="255" type="line"/>
      <point x="293" y="414" type="line" smooth="yes"/>
      <point x="292" y="440"/>
      <point x="286" y="463"/>
      <point x="277" y="484" type="curve" smooth="yes"/>
      <point x="261" y="519"/>
      <point x="228" y="555"/>
      <point x="163" y="555" type="curve" smooth="yes"/>
      <point x="130" y="555"/>
      <point x="105" y="548"/>
      <point x="88" y="533" type="curve" smooth="yes"/>
      <point x="52" y="503"/>
      <point x="35" y="464"/>
      <point x="32" y="411" type="curve" smooth="yes"/>
      <point x="32" y="136" type="line" smooth="yes"/>
      <point x="33" y="109"/>
      <point x="39" y="85"/>
      <point x="48" y="64" type="curve" smooth="yes"/>
      <point x="64" y="28"/>
      <point x="97" y="-8"/>
      <point x="162" y="-8" type="curve" smooth="yes"/>
      <point x="195" y="-8"/>
      <point x="220" y="-1"/>
      <point x="238" y="14" type="curve" smooth="yes"/>
      <point x="274" y="43"/>
      <point x="290" y="80"/>
      <point x="293" y="133" type="curve" smooth="yes"/>
    </contour>
    <contour>
      <point x="126" y="334" type="line"/>
      <point x="126" y="411" type="line" smooth="yes"/>
      <point x="127" y="422"/>
      <point x="128" y="431"/>
      <point x="131" y="439" type="curve" smooth="yes"/>
      <point x="136" y="454"/>
      <point x="144" y="467"/>
      <point x="163" y="467" type="curve" smooth="yes"/>
      <point x="172" y="467"/>
      <point x="180" y="464"/>
      <point x="185" y="459" type="curve" smooth="yes"/>
      <point x="195" y="447"/>
      <point x="199" y="432"/>
      <point x="199" y="411" type="curve" smooth="yes"/>
      <point x="199" y="334" type="line"/>
    </contour>
  </outline>
</glyph>
<glyph name="Ebreve" format="2">
  <advance width="307"/>
  <unicode hex="0114"/>
  <outline>
    <contour>
      <point x="265" y="871" type="curve"/>
      <point x="213" y="917" type="line"/>
      <point x="209" y="912"/>
      <point x="204" y="908"/>
      <point x="198" y="905" type="curve" smooth="yes"/>
      <point x="187" y="898"/>
      <point x="174" y="894"/>
      <point x="155" y="894" type="curve" smooth="yes"/>
      <point x="146" y="894"/>
      <point x="138" y="895"/>
      <point x="131" y="897" type="curve" smooth="yes"/>
      <point x="117" y="901"/>
      <point x="106" y="908"/>
      <point x="99" y="917" type="curve"/>
      <point x="45" y="871" type="line"/>
      <point x="53" y="862"/>
      <point x="63" y="854"/>
      <point x="74" y="847" type="curve" smooth="yes"/>
      <point x="93" y="835"/>
      <point x="120" y="824"/>
      <point x="155" y="824" type="curve" smooth="yes"/>
      <point x="172" y="824"/>
      <point x="188" y="826"/>
      <point x="201" y="831" type="curve" smooth="yes"/>
      <point x="228" y="840"/>
      <point x="248" y="854"/>
    </contour>
    <contour>
      <point x="40" y="735" type="line"/>
      <point x="40" y="0" type="line"/>
      <point x="287" y="0" type="line"/>
      <point x="287" y="111" type="line"/>
      <point x="148" y="111" type="line"/>
      <point x="148" y="313" type="line"/>
      <point x="248" y="313" type="line"/>
      <point x="248" y="431" type="line"/>
      <point x="148" y="431" type="line"/>
      <point x="148" y="624" type="line"/>
      <point x="287" y="624" type="line"/>
      <point x="287" y="735" type="line"/>
    </contour>
  </outline>
</glyph>
<glyph name="Edotaccent" format="2">
  <advance width="307"/>
  <unicode hex="0116"/>
  <outline>
    <contour>
      <point x="104" y="923" type="line"/>
      <point x="104" y="822" type="line"/>
      <point x="205" y="822" type="line"/>
      <point x="205" y="923" type="line"/>
    </contour>
    <contour>
      <point x="40" y="735" type="line"/>
      <point x="40" y="0" type="line"/>
      <point x="287" y="0" type="line"/>
      <point x="287" y="111" type="line"/>
      <point x="148" y="111" type="line"/>
      <point x="148" y="313" type="line"/>
      <point x="248" y="313" type="line"/>
      <point x="248" y="431" type="line"/>
      <point x="148" y="431" type="line"/>
      <point x="148" y="624" type="line"/>
      <point x="287" y="624" type="line"/>
      <point x="287" y="735" type="line"/>
    </contour>
  </outline>
</glyph>
<glyph name="Eogonek" format="2">
  <advance width="307"/>
  <unicode hex="0118"/>
  <outline>
    <contour>
      <point x="287" y="0" type="line"/>
      <point x="241" y="0" type="line"/>
      <point x="224" y="-15"/>
      <point x="212" y="-30"/>
      <point x="203" y="-50" type="curve" smooth="yes"/>
      <point x="198" y="-60"/>
      <point x="196" y="-71"/>
      <point x="196" y="-83" type="curve" smooth="yes"/>
      <point x="196" y="-112"/>
      <point x="223" y="-121"/>
      <point x="246" y="-121" type="curve" smooth="yes"/>
      <point x="263" y="-121"/>
      <point x="276" y="-117"/>
      <point x="288" y="-112" type="curve"/>
      <point x="280" y="-179" type="line"/>
      <point x="259" y="-186"/>
      <point x="246" y="-188"/>
      <point x="229" y="-188" type="curve" smooth="yes"/>
      <point x="164" y="-188"/>
      <point x="127" y="-148"/>
      <point x="127" y="-103" type="curve" smooth="yes"/>
      <point x="127" y="-75"/>
      <point x="143" y="-50"/>
      <point x="160" y="-31" type="curve" smooth="yes"/>
      <point x="169" y="-20"/>
      <point x="180" y="-9"/>
      <point x="193" y="0" type="curve"/>
      <point x="40" y="0" type="line"/>
      <point x="40" y="735" type="line"/>
      <point x="287" y="735" type="line"/>
      <point x="287" y="624" type="line"/>
      <point x="148" y="624" type="line"/>
      <point x="148" y="431" type="line"/>
      <point x="248" y="431" type="line"/>
      <point x="248" y="313" type="line"/>
      <point x="148" y="313" type="line"/>
      <point x="148" y="111" type="line"/>
      <point x="287" y="111" type="line"/>
    </contour>
  </outline>
</glyph>
<glyph name="eogonek" format="2">
  <advance width="322"/>
  <unicode hex="0119"/>
  <outline>
    <contour>
      <point x="214" y="0" type="curve" smooth="yes"/>
      <point x="248" y="0" type="line"/>
      <point x="231" y="-15"/>
      <point x="219" y="-30"/>
      <point x="210" y="-50" type="curve" smooth="yes"/>
      <point x="205" y="-60"/>
      <point x="203" y="-71"/>
      <point x="203" y="-83" type="curve" smooth="yes"/>
      <point x="203" y="-112"/>
      <point x="230" y="-121"/>
      <point x="253" y="-121" type="curve" smooth="yes"/>
      <point x="270" y="-121"/>
      <point x="283" y="-117"/>
      <point x="295" y="-112" type="curve"/>
      <point x="287" y="-179" type="line"/>
      <point x="266" y="-186"/>
      <point x="253" y="-188"/>
      <point x="236" y="-188" type="curve" smooth="yes"/>
      <point x="171" y="-188"/>
      <point x="134" y="-148"/>
      <point x="134" y="-103" type="curve" smooth="yes"/>
      <point x="134" y="-75"/>
      <point x="150" y="-50"/>
      <point x="167" y="-31" type="curve" smooth="yes"/>
      <point x="174" y="-22"/>
      <point x="183" y="-13"/>
      <point x="192" y="-6" type="curve"/>
      <point x="183" y="-7"/>
      <point x="173" y="-8"/>
      <point x="162" y="-8" type="curve" smooth="yes"/>
      <point x="97" y="-8"/>
      <point x="64" y="28"/>
      <point x="48" y="64" type="curve" smooth="yes"/>
      <point x="39" y="85"/>
      <point x="33" y="109"/>
      <point x="32" y="136" type="curve" smooth="yes"/>
      <point x="32" y="411" type="line" smooth="yes"/>
      <point x="35" y="464"/>
      <point x="52" y="503"/>
      <point x="88" y="533" type="curve" smooth="yes"/>
      <point x="105" y="548"/>
      <point x="130" y="555"/>
      <point x="163" y="555" type="curve" smooth="yes"/>
      <point x="228" y="555"/>
      <point x="261" y="519"/>
      <point x="277" y="484" type="curve" smooth="yes"/>
      <point x="286" y="463"/>
      <point x="292" y="440"/>
      <point x="293" y="414" type="curve" smooth="yes"/>
      <point x="293" y="255" type="line"/>
      <point x="126" y="255" type="line"/>
      <point x="126" y="136" type="line" smooth="yes"/>
      <point x="127" y="115"/>
      <point x="133" y="100"/>
      <point x="142" y="89" type="curve" smooth="yes"/>
      <point x="147" y="84"/>
      <point x="154" y="81"/>
      <point x="163" y="81" type="curve" smooth="yes"/>
      <point x="182" y="81"/>
      <point x="191" y="93"/>
      <point x="195" y="108" type="curve" smooth="yes"/>
      <point x="198" y="116"/>
      <point x="199" y="125"/>
      <point x="199" y="136" type="curve" smooth="yes"/>
      <point x="199" y="196" type="line"/>
      <point x="293" y="196" type="line"/>
      <point x="293" y="133" type="line" smooth="yes"/>
      <point x="290" y="80"/>
      <point x="274" y="43"/>
      <point x="238" y="14" type="curve" smooth="yes"/>
      <point x="231" y="8"/>
      <point x="223" y="3"/>
    </contour>
    <contour>
      <point x="126" y="411" type="curve" smooth="yes"/>
      <point x="126" y="334" type="line"/>
      <point x="199" y="334" type="line"/>
      <point x="199" y="411" type="line" smooth="yes"/>
      <point x="199" y="432"/>
      <point x="195" y="447"/>
      <point x="185" y="459" type="curve" smooth="yes"/>
      <point x="180" y="464"/>
      <point x="172" y="467"/>
      <point x="163" y="467" type="curve" smooth="yes"/>
      <point x="144" y="467"/>
      <point x="136" y="454"/>
      <point x="131" y="439" type="curve" smooth="yes"/>
      <point x="128" y="431"/>
      <point x="127" y="422"/>
    </contour>
  </outline>
</glyph>
<glyph name="Ecaron" format="2">
  <advance width="307"/>
  <unicode hex="011A"/>
  <outline>
    <contour>
      <point x="101" y="825" type="line"/>
      <point x="208" y="825" type="line"/>
      <point x="277" y="915" type="line"/>
      <point x="185" y="915" type="line"/>
      <point x="154" y="880" type="line"/>
      <point x="124" y="915" type="line"/>
      <point x="32" y="915" type="line"/>
    </contour>
    <contour>
      <point x="40" y="735" type="line"/>
      <point x="40" y="0" type="line"/>
      <point x="287" y="0" type="line"/>
      <point x="287" y="111" type="line"/>
      <point x="148" y="111" type="line"/>
      <point x="148" y="313" type="line"/>
      <point x="248" y="313" type="line"/>
      <point x="248" y="431" type="line"/>
      <point x="148" y="431" type="line"/>
      <point x="148" y="624" type="line"/>
      <point x="287" y="624" type="line"/>
      <point x="287" y="735" type="line"/>
    </contour>
  </outline>
</glyph>
<glyph name="Hbar" format="2">
  <advance width="380"/>
  <unicode hex="0126"/>
  <outline>
    <contour>
      <point x="380" y="627" type="line"/>
      <point x="380" y="548" type="line"/>
      <point x="340" y="548" type="line"/>
      <point x="340" y="0" type="line"/>
      <point x="232" y="0" type="line"/>
      <point x="232" y="320" type="line"/>
      <point x="148" y="320" type="line"/>
      <point x="148" y="0" type="line"/>
      <point x="40" y="0" type="line"/>
      <point x="40" y="548" type="line"/>
      <point x="1" y="548" type="line"/>
      <point x="1" y="627" type="line"/>
      <point x="40" y="627" type="line"/>
      <point x="40" y="735" type="line"/>
      <point x="148" y="735" type="line"/>
      <point x="148" y="627" type="line"/>
      <point x="232" y="627" type="line"/>
      <point x="232" y="735" type="line"/>
      <point x="340" y="735" type="line"/>
      <point x="340" y="627" type="line"/>
    </contour>
    <contour>
      <point x="232" y="431" type="line"/>
      <point x="232" y="548" type="line"/>
      <point x="148" y="548" type="line"/>
      <point x="148" y="431" type="line"/>
    </contour>
  </outline>
</glyph>
<glyph name="Itilde" format="2">
  <advance width="188"/>
  <unicode hex="0128"/>
  <outline>
    <contour>
      <point x="-2" y="899" type="curve"/>
      <point x="-2" y="825" type="line"/>
      <point x="3" y="828"/>
      <point x="8" y="830"/>
      <point x="14" y="833" type="curve" smooth="yes"/>
      <point x="25" y="837"/>
      <point x="36" y="841"/>
      <point x="51" y="841" type="curve" smooth="yes"/>
      <point x="67" y="840"/>
      <point x="82" y="837"/>
      <point x="96" y="831" type="curve" smooth="yes"/>
      <point x="109" y="825"/>
      <point x="124" y="822"/>
      <point x="139" y="822" type="curve" smooth="yes"/>
      <point x="146" y="822"/>
      <point x="153" y="823"/>
      <point x="159" y="825" type="curve" smooth="yes"/>
      <point x="171" y="828"/>
      <point x="183" y="833"/>
      <point x="192" y="841" type="curve"/>
      <point x="192" y="915" type="line"/>
      <point x="187" y="912"/>
      <point x="182" y="910"/>
      <point x="176" y="907" type="curve" smooth="yes"/>
      <point x="165" y="903"/>
      <point x="154" y="899"/>
      <point x="139" y="899" type="curve" smooth="yes"/>
      <point x="124" y="900"/>
      <point x="109" y="904"/>
      <point x="95" y="910" type="curve" smooth="yes"/>
      <point x="81" y="915"/>
      <point x="66" y="918"/>
      <point x="51" y="918" type="curve" smooth="yes"/>
      <point x="44" y="918"/>
      <point x="37" y="917"/>
      <point x="31" y="915" type="curve" smooth="yes"/>
      <point x="19" y="911"/>
      <point x="7" y="906"/>
    </contour>
    <contour>
      <point x="40" y="735" type="line"/>
      <point x="40" y="0" type="line"/>
      <point x="148" y="0" type="line"/>
      <point x="148" y="735" type="line"/>
    </contour>
  </outline>
</glyph>
<glyph name="Imacron" format="2">
  <advance width="188"/>
  <unicode hex="012A"/>
  <outline>
    <contour>
      <point x="-2" y="909" type="line"/>
      <point x="-2" y="830" type="line"/>
      <point x="192" y="830" type="line"/>
      <point x="192" y="909" type="line"/>
    </contour>
    <contour>
      <point x="40" y="735" type="line"/>
      <point x="40" y="0" type="line"/>
      <point x="148" y="0" type="line"/>
      <point x="148" y="735" type="line"/>
    </contour>
  </outline>
</glyph>
<glyph name="imacron" format="2">
  <advance width="181"/>
  <unicode hex="012B"/>
  <outline>
    <contour>
      <point x="-5" y="721" type="line"/>
      <point x="-5" y="642" type="line"/>
      <point x="189" y="642" type="line"/>
      <point x="189" y="721" type="line"/>
    </contour>
    <contour>
      <point x="40" y="0" type="line"/>
      <point x="141" y="0" type="line"/>
      <point x="141" y="547" type="line"/>
      <point x="40" y="547" type="line"/>
    </contour>
  </outline>
</glyph>
<glyph name="ibreve" format="2">
  <advance width="181"/>
  <unicode hex="012D"/>
  <outline>
    <contour>
      <point x="202" y="683" type="curve"/>
      <point x="150" y="729" type="line"/>
      <point x="146" y="724"/>
      <point x="141" y="720"/>
      <point x="135" y="717" type="curve" smooth="yes"/>
      <point x="124" y="710"/>
      <point x="111" y="706"/>
      <point x="92" y="706" type="curve" smooth="yes"/>
      <point x="83" y="706"/>
      <point x="75" y="707"/>
      <point x="68" y="709" type="curve" smooth="yes"/>
      <point x="54" y="713"/>
      <point x="43" y="720"/>
      <point x="36" y="729" type="curve"/>
      <point x="-18" y="683" type="line"/>
      <point x="-10" y="674"/>
      <point x="0" y="666"/>
      <point x="11" y="659" type="curve" smooth="yes"/>
      <point x="30" y="647"/>
      <point x="57" y="636"/>
      <point x="92" y="636" type="curve" smooth="yes"/>
      <point x="109" y="636"/>
      <point x="125" y="638"/>
      <point x="138" y="643" type="curve" smooth="yes"/>
      <point x="165" y="652"/>
      <point x="185" y="666"/>
    </contour>
    <contour>
      <point x="40" y="0" type="line"/>
      <point x="141" y="0" type="line"/>
      <point x="141" y="547" type="line"/>
      <point x="40" y="547" type="line"/>
    </contour>
  </outline>
</glyph>
<glyph name="Iogonek" format="2">
  <advance width="188"/>
  <unicode hex="012E"/>
  <outline>
    <contour>
      <point x="148" y="0" type="line"/>
      <point x="102" y="0" type="line"/>
      <point x="85" y="-15"/>
      <point x="73" y="-30"/>
      <point x="64" y="-50" type="curve" smooth="yes"/>
      <point x="59" y="-60"/>
      <point x="57" y="-71"/>
      <point x="57" y="-83" type="curve" smooth="yes"/>
      <point x="57" y="-112"/>
      <point x="84" y="-121"/>
      <point x="107" y="-121" type="curve" smooth="yes"/>
      <point x="124" y="-121"/>
      <point x="137" y="-117"/>
      <point x="149" y="-112" type="curve"/>
      <point x="141" y="-179" type="line"/>
      <point x="120" y="-186"/>
      <point x="107" y="-188"/>
      <point x="90" y="-188" type="curve" smooth="yes"/>
      <point x="25" y="-188"/>
      <point x="-12" y="-148"/>
      <point x="-12" y="-103" type="curve" smooth="yes"/>
      <point x="-12" y="-75"/>
      <point x="4" y="-50"/>
      <point x="21" y="-31" type="curve" smooth="yes"/>
      <point x="30" y="-20"/>
      <point x="41" y="-9"/>
      <point x="54" y="0" type="curve"/>
      <point x="40" y="0" type="line"/>
      <point x="40" y="735" type="line"/>
      <point x="148" y="735" type="line"/>
    </contour>
  </outline>
</glyph>
<glyph name="Idotaccent" format="2">
  <advance width="188"/>
  <unicode hex="0130"/>
  <outline>
    <contour>
      <point x="45" y="923" type="line"/>
      <point x="45" y="822" type="line"/>
      <point x="146" y="822" type="line"/>
      <point x="146" y="923" type="line"/>
    </contour>
    <contour>
      <point x="40" y="735" type="line"/>
      <point x="40" y="0" type="line"/>
      <point x="148" y="0" type="line"/>
      <point x="148" y="735" type="line"/>
    </contour>
  </outline>
</glyph>
<glyph name="IJ" format="2">
  <advance width="395"/>
  <unicode hex="0132"/>
  <outline>
    <contour>
      <point x="40" y="735" type="line"/>
      <point x="40" y="0" type="line"/>
      <point x="148" y="0" type="line"/>
      <point x="148" y="735" type="line"/>
    </contour>
    <contour>
      <point x="194" y="99" type="curve"/>
      <point x="194" y="-7" type="line"/>
      <point x="258" y="-11"/>
      <point x="300" y="5"/>
      <point x="325" y="32" type="curve" smooth="yes"/>
      <point x="350" y="59"/>
      <point x="360" y="96"/>
      <point x="360" y="136" type="curve" smooth="yes"/>
      <point x="360" y="735" type="line"/>
      <point x="252" y="735" type="line"/>
      <point x="252" y="153" type="line" smooth="yes"/>
      <point x="252" y="136"/>
      <point x="249" y="124"/>
      <point x="243" y="117" type="curve" smooth="yes"/>
      <point x="231" y="101"/>
      <point x="215" y="96"/>
    </contour>
  </outline>
</glyph>
<glyph name="Jcircumflex" format="2">
  <advance width="207"/>
  <unicode hex="0134"/>
  <outline>
    <contour>
      <point x="158" y="915" type="line"/>
      <point x="51" y="915" type="line"/>
      <point x="-18" y="825" type="line"/>
      <point x="74" y="825" type="line"/>
      <point x="104" y="860" type="line"/>
      <point x="135" y="825" type="line"/>
      <point x="227" y="825" type="line"/>
    </contour>
    <contour>
      <point x="6" y="99" type="curve"/>
      <point x="6" y="-7" type="line"/>
      <point x="70" y="-11"/>
      <point x="112" y="5"/>
      <point x="137" y="32" type="curve" smooth="yes"/>
      <point x="162" y="59"/>
      <point x="172" y="96"/>
      <point x="172" y="136" type="curve" smooth="yes"/>
      <point x="172" y="735" type="line"/>
      <point x="64" y="735" type="line"/>
      <point x="64" y="153" type="line" smooth="yes"/>
      <point x="64" y="136"/>
      <point x="61" y="124"/>
      <point x="55" y="117" type="curve" smooth="yes"/>
      <point x="43" y="101"/>
      <point x="27" y="96"/>
    </contour>
  </outline>
</glyph>
<glyph name="kgreenlandic" format="2">
  <advance width="313"/>
  <unicode hex="0138"/>
  <outline>
    <contour>
      <point x="141" y="735" type="line"/>
      <point x="40" y="735" type="line"/>
      <point x="40" y="0" type="line"/>
      <point x="141" y="0" type="line"/>
      <point x="141" y="189" type="line"/>
      <point x="154" y="221" type="line"/>
      <point x="157" y="229" type="line"/>
      <point x="162" y="229" type="line"/>
      <point x="164" y="221" type="line"/>
      <point x="214" y="0" type="line"/>
      <point x="311" y="0" type="line"/>
      <point x="219" y="369" type="line"/>
      <point x="292" y="547" type="line"/>
      <point x="201" y="547" type="line"/>
      <point x="152" y="404" type="line"/>
      <point x="146" y="386" type="line"/>
      <point x="141" y="386" type="line"/>
    </contour>
  </outline>
</glyph>
<glyph name="Lacute" format="2">
  <advance width="295"/>
  <unicode hex="0139"/>
  <outline>
    <contour>
      <point x="227" y="915" type="line"/>
      <point x="122" y="915" type="line"/>
      <point x="70" y="825" type="line"/>
      <point x="148" y="825" type="line"/>
    </contour>
    <contour>
      <point x="40" y="735" type="line"/>
      <point x="40" y="0" type="line"/>
      <point x="291" y="0" type="line"/>
      <point x="291" y="100" type="line"/>
      <point x="148" y="100" type="line"/>
      <point x="148" y="735" type="line"/>
    </contour>
  </outline>
</glyph>
<glyph name="lacute" format="2">
  <advance width="181"/>
  <unicode hex="013A"/>
  <outline>
    <contour>
      <point x="170" y="838" type="line"/>
      <point x="65" y="838" type="line"/>
      <point x="13" y="748" type="line"/>
      <point x="91" y="748" type="line"/>
    </contour>
    <contour>
      <point x="40" y="0" type="line"/>
      <point x="141" y="0" type="line"/>
      <point x="141" y="735" type="line"/>
      <point x="40" y="735" type="line"/>
    </contour>
  </outline>
</glyph>
<glyph name="Lcommaaccent" format="2">
  <advance width="295"/>
  <unicode hex="013B"/>
  <outline>
    <contour>
      <point x="40" y="735" type="line"/>
      <point x="40" y="0" type="line"/>
      <point x="291" y="0" type="line"/>
      <point x="291" y="100" type="line"/>
      <point x="148" y="100" type="line"/>
      <point x="148" y="735" type="line"/>
    </contour>
    <contour>
      <point x="215" y="-123" type="line"/>
      <point x="215" y="-54" type="line"/>
      <point x="131" y="-54" type="line"/>
      <point x="131" y="-123" type="line"/>
      <point x="162" y="-123" type="line"/>
      <point x="142" y="-188" type="line"/>
      <point x="193" y="-188" type="line"/>
    </contour>
  </outline>
</glyph>
<glyph name="lcommaaccent" format="2">
  <advance width="181"/>
  <unicode hex="013C"/>
  <outline>
    <contour>
      <point x="40" y="0" type="line"/>
      <point x="141" y="0" type="line"/>
      <point x="141" y="735" type="line"/>
      <point x="40" y="735" type="line"/>
    </contour>
    <contour>
      <point x="135" y="-116" type="line"/>
      <point x="135" y="-47" type="line"/>
      <point x="51" y="-47" type="line"/>
      <point x="51" y="-116" type="line"/>
      <point x="82" y="-116" type="line"/>
      <point x="62" y="-181" type="line"/>
      <point x="113" y="-181" type="line"/>
    </contour>
  </outline>
</glyph>
<glyph name="ldot" format="2">
  <advance width="286"/>
  <unicode hex="0140"/>
  <outline>
    <contour>
      <point x="40" y="0" type="line"/>
      <point x="141" y="0" type="line"/>
      <point x="141" y="735" type="line"/>
      <point x="40" y="735" type="line"/>
    </contour>
    <contour>
      <point x="181" y="428" type="line"/>
      <point x="181" y="317" type="line"/>
      <point x="286" y="317" type="line"/>
      <point x="286" y="428" type="line"/>
    </contour>
  </outline>
</glyph>
<glyph name="Lslash" format="2">
  <advance width="307"/>
  <unicode hex="0141"/>
  <outline>
    <contour>
      <point x="20" y="382" type="line"/>
      <point x="20" y="274" type="line"/>
      <point x="52" y="299" type="line"/>
      <point x="52" y="0" type="line"/>
      <point x="303" y="0" type="line"/>
      <point x="303" y="100" type="line"/>
      <point x="160" y="100" type="line"/>
      <point x="160" y="383" type="line"/>
      <point x="219" y="429" type="line"/>
      <point x="219" y="537" type="line"/>
      <point x="160" y="491" type="line"/>
      <point x="160" y="735" type="line"/>
      <point x="52" y="735" type="line"/>
      <point x="52" y="407" type="line"/>
    </contour>
  </outline>
</glyph>
<glyph name="lslash" format="2">
  <advance width="229"/>
  <unicode hex="0142"/>
  <outline>
    <contour>
      <point x="64" y="0" type="line"/>
      <point x="165" y="0" type="line"/>
      <point x="165" y="391" type="line"/>
      <point x="214" y="429" type="line"/>
      <point x="214" y="537" type="line"/>
      <point x="165" y="499" type="line"/>
      <point x="165" y="735" type="line"/>
      <point x="64" y="735" type="line"/>
      <point x="64" y="420" type="line"/>
      <point x="15" y="382" type="line"/>
      <point x="15" y="274" type="line"/>
      <point x="64" y="312" type="line"/>
    </contour>
  </outline>
</glyph>
<glyph name="Nacute" format="2">
  <advance width="395"/>
  <unicode hex="0143"/>
  <outline>
    <contour>
      <point x="277" y="915" type="line"/>
      <point x="172" y="915" type="line"/>
      <point x="120" y="825" type="line"/>
      <point x="198" y="825" type="line"/>
    </contour>
    <contour>
      <point x="154" y="383" type="line"/>
      <point x="259" y="0" type="line"/>
      <point x="355" y="0" type="line"/>
      <point x="355" y="735" type="line"/>
      <point x="256" y="735" type="line"/>
      <point x="256" y="318" type="line"/>
      <point x="250" y="318" type="line"/>
      <point x="241" y="352" type="line"/>
      <point x="136" y="735" type="line"/>
      <point x="40" y="735" type="line"/>
      <point x="40" y="0" type="line"/>
      <point x="139" y="0" type="line"/>
      <point x="139" y="417" type="line"/>
      <point x="145" y="417" type="line"/>
    </contour>
  </outline>
</glyph>
<glyph name="Eng" format="2">
  <advance width="395"/>
  <unicode hex="014A"/>
  <outline>
    <contour>
      <point x="256" y="735" type="line"/>
      <point x="355" y="735" type="line"/>
      <point x="355" y="0" type="line" smooth="yes"/>
      <point x="353" y="-32"/>
      <point x="344" y="-62"/>
      <point x="326" y="-84" type="curve" smooth="yes"/>
      <point x="305" y="-109"/>
      <point x="269" y="-125"/>
      <point x="216" y="-121" type="curve"/>
      <point x="216" y="-20" type="line"/>
      <point x="233" y="-23"/>
      <point x="248" y="-18"/>
      <point x="258" y="-3" type="curve" smooth="yes"/>
      <point x="259" y="-2"/>
      <point x="259" y="-1"/>
      <point x="260" y="0" type="curve" smooth="yes"/>
      <point x="259" y="0" type="line"/>
      <point x="154" y="383" type="line"/>
      <point x="145" y="417" type="line"/>
      <point x="139" y="417" type="line"/>
      <point x="139" y="0" type="line"/>
      <point x="40" y="0" type="line"/>
      <point x="40" y="735" type="line"/>
      <point x="136" y="735" type="line"/>
      <point x="241" y="352" type="line"/>
      <point x="250" y="318" type="line"/>
      <point x="256" y="318" type="line"/>
    </contour>
  </outline>
</glyph>
<glyph name="obreve" format="2">
  <advance width="321"/>
  <unicode hex="014F"/>
  <outline>
    <contour>
      <point x="272" y="683" type="curve"/>
      <point x="220" y="729" type="line"/>
      <point x="216" y="724"/>
      <point x="211" y="720"/>
      <point x="205" y="717" type="curve" smooth="yes"/>
      <point x="194" y="710"/>
      <point x="181" y="706"/>
      <point x="162" y="706" type="curve" smooth="yes"/>
      <point x="153" y="706"/>
      <point x="145" y="707"/>
      <point x="138" y="709" type="curve" smooth="yes"/>
      <point x="124" y="713"/>
      <point x="113" y="720"/>
      <point x="106" y="729" type="curve"/>
      <point x="52" y="683" type="line"/>
      <point x="60" y="674"/>
      <point x="70" y="666"/>
      <point x="81" y="659" type="curve" smooth="yes"/>
      <point x="100" y="647"/>
      <point x="127" y="636"/>
      <point x="162" y="636" type="curve" smooth="yes"/>
      <point x="179" y="636"/>
      <point x="195" y="638"/>
      <point x="208" y="643" type="curve" smooth="yes"/>
      <point x="235" y="652"/>
      <point x="255" y="666"/>
    </contour>
    <contour>
      <point x="290" y="133" type="curve" smooth="yes"/>
      <point x="290" y="414" type="line" smooth="yes"/>
      <point x="289" y="440"/>
      <point x="283" y="463"/>
      <point x="274" y="484" type="curve" smooth="yes"/>
      <point x="258" y="519"/>
      <point x="225" y="555"/>
      <point x="160" y="555" type="curve" smooth="yes"/>
      <point x="127" y="555"/>
      <point x="102" y="548"/>
      <point x="85" y="533" type="curve" smooth="yes"/>
      <point x="50" y="503"/>
      <point x="34" y="464"/>
      <point x="31" y="411" type="curve" smooth="yes"/>
      <point x="31" y="136" type="line" smooth="yes"/>
      <point x="32" y="109"/>
      <point x="38" y="85"/>
      <point x="47" y="64" type="curve" smooth="yes"/>
      <point x="63" y="28"/>
      <point x="95" y="-8"/>
      <point x="160" y="-8" type="curve" smooth="yes"/>
      <point x="193" y="-8"/>
      <point x="218" y="-1"/>
      <point x="236" y="14" type="curve" smooth="yes"/>
      <point x="271" y="43"/>
      <point x="287" y="80"/>
    </contour>
    <contour>
      <point x="195" y="411" type="curve" smooth="yes"/>
      <point x="195" y="136" type="line" smooth="yes"/>
      <point x="196" y="125"/>
      <point x="195" y="116"/>
      <point x="192" y="108" type="curve" smooth="yes"/>
      <point x="188" y="93"/>
      <point x="179" y="81"/>
      <point x="160" y="81" type="curve" smooth="yes"/>
      <point x="151" y="81"/>
      <point x="144" y="84"/>
      <point x="139" y="89" type="curve" smooth="yes"/>
      <point x="130" y="100"/>
      <point x="125" y="115"/>
      <point x="126" y="136" type="curve" smooth="yes"/>
      <point x="126" y="411" type="line" smooth="yes"/>
      <point x="125" y="422"/>
      <point x="126" y="431"/>
      <point x="129" y="439" type="curve" smooth="yes"/>
      <point x="133" y="454"/>
      <point x="141" y="467"/>
      <point x="160" y="467" type="curve" smooth="yes"/>
      <point x="169" y="467"/>
      <point x="177" y="464"/>
      <point x="182" y="459" type="curve" smooth="yes"/>
      <point x="192" y="447"/>
      <point x="196" y="432"/>
    </contour>
  </outline>
</glyph>
<glyph name="oe" format="2">
  <advance width="486"/>
  <unicode hex="0153"/>
  <outline>
    <contour>
      <point x="457" y="196" type="line"/>
      <point x="363" y="196" type="line"/>
      <point x="363" y="136" type="line" smooth="yes"/>
      <point x="363" y="125"/>
      <point x="362" y="116"/>
      <point x="359" y="108" type="curve" smooth="yes"/>
      <point x="355" y="93"/>
      <point x="346" y="81"/>
      <point x="327" y="81" type="curve" smooth="yes"/>
      <point x="311" y="81"/>
      <point x="301" y="92"/>
      <point x="296" y="104" type="curve" smooth="yes"/>
      <point x="291" y="116"/>
      <point x="290" y="129"/>
      <point x="290" y="133" type="curve" smooth="yes"/>
      <point x="290" y="255" type="line"/>
      <point x="457" y="255" type="line"/>
      <point x="457" y="414" type="line" smooth="yes"/>
      <point x="456" y="440"/>
      <point x="450" y="463"/>
      <point x="441" y="484" type="curve" smooth="yes"/>
      <point x="425" y="519"/>
      <point x="392" y="555"/>
      <point x="327" y="555" type="curve" smooth="yes"/>
      <point x="288" y="555"/>
      <point x="263" y="543"/>
      <point x="244" y="526" type="curve"/>
      <point x="225" y="543"/>
      <point x="199" y="555"/>
      <point x="160" y="555" type="curve" smooth="yes"/>
      <point x="127" y="555"/>
      <point x="102" y="548"/>
      <point x="85" y="533" type="curve" smooth="yes"/>
      <point x="50" y="503"/>
      <point x="34" y="464"/>
      <point x="31" y="411" type="curve" smooth="yes"/>
      <point x="31" y="136" type="line" smooth="yes"/>
      <point x="32" y="109"/>
      <point x="38" y="85"/>
      <point x="47" y="64" type="curve" smooth="yes"/>
      <point x="63" y="28"/>
      <point x="95" y="-8"/>
      <point x="160" y="-8" type="curve" smooth="yes"/>
      <point x="197" y="-8"/>
      <point x="224" y="4"/>
      <point x="243" y="20" type="curve"/>
      <point x="262" y="3"/>
      <point x="289" y="-8"/>
      <point x="326" y="-8" type="curve" smooth="yes"/>
      <point x="359" y="-8"/>
      <point x="384" y="-1"/>
      <point x="402" y="14" type="curve" smooth="yes"/>
      <point x="438" y="43"/>
      <point x="454" y="80"/>
      <point x="457" y="133" type="curve" smooth="yes"/>
    </contour>
    <contour>
      <point x="195" y="411" type="curve" smooth="yes"/>
      <point x="195" y="136" type="line" smooth="yes"/>
      <point x="196" y="125"/>
      <point x="195" y="116"/>
      <point x="192" y="108" type="curve" smooth="yes"/>
      <point x="188" y="93"/>
      <point x="179" y="81"/>
      <point x="160" y="81" type="curve" smooth="yes"/>
      <point x="151" y="81"/>
      <point x="144" y="84"/>
      <point x="139" y="89" type="curve" smooth="yes"/>
      <point x="130" y="100"/>
      <point x="125" y="115"/>
      <point x="126" y="136" type="curve" smooth="yes"/>
      <point x="126" y="411" type="line" smooth="yes"/>
      <point x="125" y="422"/>
      <point x="126" y="431"/>
      <point x="129" y="439" type="curve" smooth="yes"/>
      <point x="133" y="454"/>
      <point x="141" y="467"/>
      <point x="160" y="467" type="curve" smooth="yes"/>
      <point x="169" y="467"/>
      <point x="177" y="464"/>
      <point x="182" y="459" type="curve" smooth="yes"/>
      <point x="192" y="447"/>
      <point x="196" y="432"/>
    </contour>
    <contour>
      <point x="290" y="334" type="line"/>
      <point x="290" y="414" type="line" smooth="yes"/>
      <point x="290" y="419"/>
      <point x="291" y="432"/>
      <point x="296" y="444" type="curve" smooth="yes"/>
      <point x="301" y="456"/>
      <point x="311" y="467"/>
      <point x="327" y="467" type="curve" smooth="yes"/>
      <point x="336" y="467"/>
      <point x="344" y="464"/>
      <point x="349" y="459" type="curve" smooth="yes"/>
      <point x="359" y="447"/>
      <point x="363" y="432"/>
      <point x="363" y="411" type="curve" smooth="yes"/>
      <point x="363" y="334" type="line"/>
    </contour>
  </outline>
</glyph>
<glyph name="rcaron" format="2">
  <advance width="246"/>
  <unicode hex="0159"/>
  <outline>
    <contour>
      <point x="71" y="637" type="line"/>
      <point x="178" y="637" type="line"/>
      <point x="247" y="727" type="line"/>
      <point x="155" y="727" type="line"/>
      <point x="124" y="692" type="line"/>
      <point x="94" y="727" type="line"/>
      <point x="2" y="727" type="line"/>
    </contour>
    <contour>
      <point x="242" y="443" type="curve"/>
      <point x="242" y="555" type="line"/>
      <point x="205" y="555"/>
      <point x="181" y="541"/>
      <point x="165" y="526" type="curve" smooth="yes"/>
      <point x="149" y="510"/>
      <point x="142" y="493"/>
      <point x="141" y="486" type="curve" smooth="yes"/>
      <point x="141" y="547" type="line"/>
      <point x="40" y="547" type="line"/>
      <point x="40" y="0" type="line"/>
      <point x="141" y="0" type="line"/>
      <point x="141" y="380" type="line" smooth="yes"/>
      <point x="141" y="397"/>
      <point x="144" y="414"/>
      <point x="163" y="430" type="curve" smooth="yes"/>
      <point x="179" y="445"/>
      <point x="198" y="447"/>
      <point x="214" y="447" type="curve" smooth="yes"/>
      <point x="223" y="447"/>
      <point x="233" y="446"/>
    </contour>
  </outline>
</glyph>
<glyph name="tcaron" format="2">
  <advance width="396"/>
  <unicode hex="0165"/>
  <outline>
    <contour>
      <point x="372" y="624" type="line"/>
      <point x="372" y="735" type="line"/>
      <point x="267" y="735" type="line"/>
      <point x="267" y="624" type="line"/>
      <point x="302" y="624" type="line"/>
      <point x="267" y="494" type="line"/>
      <point x="317" y="494" type="line"/>
    </contour>
    <contour>
      <point x="162" y="682" type="line"/>
      <point x="61" y="682" type="line"/>
      <point x="61" y="547" type="line"/>
      <point x="10" y="547" type="line"/>
      <point x="10" y="456" type="line"/>
      <point x="61" y="456" type="line"/>
      <point x="61" y="176" type="line" smooth="yes"/>
      <point x="61" y="144"/>
      <point x="62" y="98"/>
      <point x="76" y="60" type="curve" smooth="yes"/>
      <point x="90" y="22"/>
      <point x="118" y="-8"/>
      <point x="177" y="-8" type="curve" smooth="yes"/>
      <point x="193" y="-8"/>
      <point x="206" y="-7"/>
      <point x="216" y="-5" type="curve" smooth="yes"/>
      <point x="221" y="-4"/>
      <point x="226" y="-2"/>
      <point x="231" y="-1" type="curve"/>
      <point x="231" y="98" type="line"/>
      <point x="227" y="97"/>
      <point x="223" y="97"/>
      <point x="219" y="96" type="curve" smooth="yes"/>
      <point x="212" y="95"/>
      <point x="202" y="94"/>
      <point x="194" y="94" type="curve" smooth="yes"/>
      <point x="178" y="94"/>
      <point x="170" y="109"/>
      <point x="166" y="127" type="curve" smooth="yes"/>
      <point x="162" y="145"/>
      <point x="162" y="167"/>
      <point x="162" y="184" type="curve" smooth="yes"/>
      <point x="162" y="456" type="line"/>
      <point x="231" y="456" type="line"/>
      <point x="231" y="547" type="line"/>
      <point x="162" y="547" type="line"/>
    </contour>
  </outline>
</glyph>
<glyph name="Utilde" format="2">
  <advance width="366"/>
  <unicode hex="0168"/>
  <outline>
    <contour>
      <point x="87" y="899" type="curve"/>
      <point x="87" y="825" type="line"/>
      <point x="92" y="828"/>
      <point x="97" y="830"/>
      <point x="103" y="833" type="curve" smooth="yes"/>
      <point x="114" y="837"/>
      <point x="125" y="841"/>
      <point x="140" y="841" type="curve" smooth="yes"/>
      <point x="156" y="840"/>
      <point x="171" y="837"/>
      <point x="185" y="831" type="curve" smooth="yes"/>
      <point x="198" y="825"/>
      <point x="213" y="822"/>
      <point x="228" y="822" type="curve" smooth="yes"/>
      <point x="235" y="822"/>
      <point x="242" y="823"/>
      <point x="248" y="825" type="curve" smooth="yes"/>
      <point x="260" y="828"/>
      <point x="272" y="833"/>
      <point x="281" y="841" type="curve"/>
      <point x="281" y="915" type="line"/>
      <point x="276" y="912"/>
      <point x="271" y="910"/>
      <point x="265" y="907" type="curve" smooth="yes"/>
      <point x="254" y="903"/>
      <point x="243" y="899"/>
      <point x="228" y="899" type="curve" smooth="yes"/>
      <point x="213" y="900"/>
      <point x="198" y="904"/>
      <point x="184" y="910" type="curve" smooth="yes"/>
      <point x="170" y="915"/>
      <point x="155" y="918"/>
      <point x="140" y="918" type="curve" smooth="yes"/>
      <point x="133" y="918"/>
      <point x="126" y="917"/>
      <point x="120" y="915" type="curve" smooth="yes"/>
      <point x="108" y="911"/>
      <point x="96" y="906"/>
    </contour>
    <contour>
      <point x="327" y="735" type="line"/>
      <point x="219" y="735" type="line"/>
      <point x="219" y="151" type="line" smooth="yes"/>
      <point x="219" y="140"/>
      <point x="218" y="131"/>
      <point x="215" y="124" type="curve" smooth="yes"/>
      <point x="211" y="109"/>
      <point x="202" y="97"/>
      <point x="183" y="97" type="curve" smooth="yes"/>
      <point x="174" y="97"/>
      <point x="167" y="100"/>
      <point x="162" y="105" type="curve" smooth="yes"/>
      <point x="152" y="116"/>
      <point x="147" y="130"/>
      <point x="147" y="151" type="curve" smooth="yes"/>
      <point x="147" y="735" type="line"/>
      <point x="39" y="735" type="line"/>
      <point x="39" y="151" type="line" smooth="yes"/>
      <point x="40" y="121"/>
      <point x="46" y="94"/>
      <point x="57" y="71" type="curve" smooth="yes"/>
      <point x="66" y="51"/>
      <point x="79" y="32"/>
      <point x="99" y="17" type="curve" smooth="yes"/>
      <point x="119" y="1"/>
      <point x="147" y="-8"/>
      <point x="183" y="-8" type="curve" smooth="yes"/>
      <point x="219" y="-8"/>
      <point x="246" y="1"/>
      <point x="266" y="17" type="curve" smooth="yes"/>
      <point x="286" y="32"/>
      <point x="300" y="51"/>
      <point x="309" y="71" type="curve" smooth="yes"/>
      <point x="320" y="94"/>
      <point x="326" y="121"/>
      <point x="327" y="151" type="curve" smooth="yes"/>
    </contour>
  </outline>
</glyph>
<glyph name="Ubreve" format="2">
  <advance width="366"/>
  <unicode hex="016C"/>
  <outline>
    <contour>
      <point x="294" y="871" type="curve"/>
      <point x="242" y="917" type="line"/>
      <point x="238" y="912"/>
      <point x="233" y="908"/>
      <point x="227" y="905" type="curve" smooth="yes"/>
      <point x="216" y="898"/>
      <point x="203" y="894"/>
      <point x="184" y="894" type="curve" smooth="yes"/>
      <point x="175" y="894"/>
      <point x="167" y="895"/>
      <point x="160" y="897" type="curve" smooth="yes"/>
      <point x="146" y="901"/>
      <point x="135" y="908"/>
      <point x="128" y="917" type="curve"/>
      <point x="74" y="871" type="line"/>
      <point x="82" y="862"/>
      <point x="92" y="854"/>
      <point x="103" y="847" type="curve" smooth="yes"/>
      <point x="122" y="835"/>
      <point x="149" y="824"/>
      <point x="184" y="824" type="curve" smooth="yes"/>
      <point x="201" y="824"/>
      <point x="217" y="826"/>
      <point x="230" y="831" type="curve" smooth="yes"/>
      <point x="257" y="840"/>
      <point x="277" y="854"/>
    </contour>
    <contour>
      <point x="327" y="735" type="line"/>
      <point x="219" y="735" type="line"/>
      <point x="219" y="151" type="line" smooth="yes"/>
      <point x="219" y="140"/>
      <point x="218" y="131"/>
      <point x="215" y="124" type="curve" smooth="yes"/>
      <point x="211" y="109"/>
      <point x="202" y="97"/>
      <point x="183" y="97" type="curve" smooth="yes"/>
      <point x="174" y="97"/>
      <point x="167" y="100"/>
      <point x="162" y="105" type="curve" smooth="yes"/>
      <point x="152" y="116"/>
      <point x="147" y="130"/>
      <point x="147" y="151" type="curve" smooth="yes"/>
      <point x="147" y="735" type="line"/>
      <point x="39" y="735" type="line"/>
      <point x="39" y="151" type="line" smooth="yes"/>
      <point x="40" y="121"/>
      <point x="46" y="94"/>
      <point x="57" y="71" type="curve" smooth="yes"/>
      <point x="66" y="51"/>
      <point x="79" y="32"/>
      <point x="99" y="17" type="curve" smooth="yes"/>
      <point x="119" y="1"/>
      <point x="147" y="-8"/>
      <point x="183" y="-8" type="curve" smooth="yes"/>
      <point x="219" y="-8"/>
      <point x="246" y="1"/>
      <point x="266" y="17" type="curve" smooth="yes"/>
      <point x="286" y="32"/>
      <point x="300" y="51"/>
      <point x="309" y="71" type="curve" smooth="yes"/>
      <point x="320" y="94"/>
      <point x="326" y="121"/>
      <point x="327" y="151" type="curve" smooth="yes"/>
    </contour>
  </outline>
</glyph>
<glyph name="ubreve" format="2">
  <advance width="337"/>
  <unicode hex="016D"/>
  <outline>
    <contour>
      <point x="280" y="683" type="curve"/>
      <point x="228" y="729" type="line"/>
      <point x="224" y="724"/>
      <point x="219" y="720"/>
      <point x="213" y="717" type="curve" smooth="yes"/>
      <point x="202" y="710"/>
      <point x="189" y="706"/>
      <point x="170" y="706" type="curve" smooth="yes"/>
      <point x="161" y="706"/>
      <point x="153" y="707"/>
      <point x="146" y="709" type="curve" smooth="yes"/>
      <point x="132" y="713"/>
      <point x="121" y="720"/>
      <point x="114" y="729" type="curve"/>
      <point x="60" y="683" type="line"/>
      <point x="68" y="674"/>
      <point x="78" y="666"/>
      <point x="89" y="659" type="curve" smooth="yes"/>
      <point x="108" y="647"/>
      <point x="135" y="636"/>
      <point x="170" y="636" type="curve" smooth="yes"/>
      <point x="187" y="636"/>
      <point x="203" y="638"/>
      <point x="216" y="643" type="curve" smooth="yes"/>
      <point x="243" y="652"/>
      <point x="263" y="666"/>
    </contour>
    <contour>
      <point x="196" y="547" type="line"/>
      <point x="196" y="116" type="line" smooth="yes"/>
      <point x="193" y="111"/>
      <point x="190" y="106"/>
      <point x="187" y="103" type="curve" smooth="yes"/>
      <point x="180" y="96"/>
      <point x="174" y="90"/>
      <point x="163" y="90" type="curve" smooth="yes"/>
      <point x="151" y="90"/>
      <point x="139" y="93"/>
      <point x="139" y="114" type="curve" smooth="yes"/>
      <point x="139" y="547" type="line"/>
      <point x="38" y="547" type="line"/>
      <point x="38" y="99" type="line" smooth="yes"/>
      <point x="38" y="76"/>
      <point x="44" y="49"/>
      <point x="56" y="29" type="curve" smooth="yes"/>
      <point x="68" y="8"/>
      <point x="87" y="-8"/>
      <point x="114" y="-8" type="curve" smooth="yes"/>
      <point x="123" y="-8"/>
      <point x="132" y="-5"/>
      <point x="141" y="0" type="curve" smooth="yes"/>
      <point x="159" y="10"/>
      <point x="173" y="24"/>
      <point x="185" y="36" type="curve" smooth="yes"/>
      <point x="190" y="41"/>
      <point x="194" y="45"/>
      <point x="196" y="46" type="curve" smooth="yes"/>
      <point x="196" y="0" type="line"/>
      <point x="297" y="0" type="line"/>
      <point x="297" y="547" type="line"/>
    </contour>
  </outline>
</glyph>
<glyph name="uring" format="2">
  <advance width="337"/>
  <unicode hex="016F"/>
  <outline>
    <contour>
      <point x="95" y="694" type="curve" smooth="yes"/>
      <point x="95" y="653"/>
      <point x="129" y="624"/>
      <point x="170" y="624" type="curve" smooth="yes"/>
      <point x="211" y="624"/>
      <point x="244" y="653"/>
      <point x="244" y="694" type="curve" smooth="yes"/>
      <point x="244" y="735"/>
      <point x="211" y="764"/>
      <point x="170" y="764" type="curve" smooth="yes"/>
      <point x="129" y="764"/>
      <point x="95" y="735"/>
    </contour>
    <contour>
      <point x="133" y="694" type="curve" smooth="yes"/>
      <point x="133" y="713"/>
      <point x="151" y="729"/>
      <point x="170" y="729" type="curve" smooth="yes"/>
      <point x="189" y="729"/>
      <point x="207" y="713"/>
      <point x="207" y="694" type="curve" smooth="yes"/>
      <point x="207" y="675"/>
      <point x="189" y="659"/>
      <point x="170" y="659" type="curve" smooth="yes"/>
      <point x="151" y="659"/>
      <point x="133" y="675"/>
    </contour>
    <contour>
      <point x="196" y="547" type="line"/>
      <point x="196" y="116" type="line" smooth="yes"/>
      <point x="193" y="111"/>
      <point x="190" y="106"/>
      <point x="187" y="103" type="curve" smooth="yes"/>
      <point x="180" y="96"/>
      <point x="174" y="90"/>
      <point x="163" y="90" type="curve" smooth="yes"/>
      <point x="151" y="90"/>
      <point x="139" y="93"/>
      <point x="139" y="114" type="curve" smooth="yes"/>
      <point x="139" y="547" type="line"/>
      <point x="38" y="547" type="line"/>
      <point x="38" y="99" type="line" smooth="yes"/>
      <point x="38" y="76"/>
      <point x="44" y="49"/>
      <point x="56" y="29" type="curve" smooth="yes"/>
      <point x="68" y="8"/>
      <point x="87" y="-8"/>
      <point x="114" y="-8" type="curve" smooth="yes"/>
      <point x="123" y="-8"/>
      <point x="132" y="-5"/>
      <point x="141" y="0" type="curve" smooth="yes"/>
      <point x="159" y="10"/>
      <point x="173" y="24"/>
      <point x="185" y="36" type="curve" smooth="yes"/>
      <point x="190" y="41"/>
      <point x="194" y="45"/>
      <point x="196" y="46" type="curve" smooth="yes"/>
      <point x="196" y="0" type="line"/>
      <point x="297" y="0" type="line"/>
      <point x="297" y="547" type="line"/>
    </contour>
  </outline>
</glyph>
<glyph name="uogonek" format="2">
  <advance width="337"/>
  <unicode hex="0173"/>
  <outline>
    <contour>
      <point x="297" y="0" type="line"/>
      <point x="251" y="0" type="line"/>
      <point x="234" y="-15"/>
      <point x="222" y="-30"/>
      <point x="213" y="-50" type="curve" smooth="yes"/>
      <point x="208" y="-60"/>
      <point x="206" y="-71"/>
      <point x="206" y="-83" type="curve" smooth="yes"/>
      <point x="206" y="-112"/>
      <point x="233" y="-121"/>
      <point x="256" y="-121" type="curve" smooth="yes"/>
      <point x="273" y="-121"/>
      <point x="286" y="-117"/>
      <point x="298" y="-112" type="curve"/>
      <point x="290" y="-179" type="line"/>
      <point x="269" y="-186"/>
      <point x="256" y="-188"/>
      <point x="239" y="-188" type="curve" smooth="yes"/>
      <point x="174" y="-188"/>
      <point x="137" y="-148"/>
      <point x="137" y="-103" type="curve" smooth="yes"/>
      <point x="137" y="-75"/>
      <point x="153" y="-50"/>
      <point x="170" y="-31" type="curve" smooth="yes"/>
      <point x="179" y="-20"/>
      <point x="190" y="-9"/>
      <point x="203" y="0" type="curve"/>
      <point x="196" y="0" type="line"/>
      <point x="196" y="46" type="line" smooth="yes"/>
      <point x="194" y="45"/>
      <point x="190" y="41"/>
      <point x="185" y="36" type="curve" smooth="yes"/>
      <point x="173" y="24"/>
      <point x="159" y="10"/>
      <point x="141" y="0" type="curve" smooth="yes"/>
      <point x="132" y="-5"/>
      <point x="123" y="-8"/>
      <point x="114" y="-8" type="curve" smooth="yes"/>
      <point x="87" y="-8"/>
      <point x="68" y="8"/>
      <point x="56" y="29" type="curve" smooth="yes"/>
      <point x="44" y="49"/>
      <point x="38" y="76"/>
      <point x="38" y="99" type="curve" smooth="yes"/>
      <point x="38" y="547" type="line"/>
      <point x="139" y="547" type="line"/>
      <point x="139" y="114" type="line" smooth="yes"/>
      <point x="139" y="93"/>
      <point x="151" y="90"/>
      <point x="163" y="90" type="curve" smooth="yes"/>
      <point x="174" y="90"/>
      <point x="180" y="96"/>
      <point x="187" y="103" type="curve" smooth="yes"/>
      <point x="190" y="106"/>
      <point x="193" y="111"/>
      <point x="196" y="116" type="curve" smooth="yes"/>
      <point x="196" y="547" type="line"/>
      <point x="297" y="547" type="line"/>
    </contour>
  </outline>
</glyph>
<glyph name="Wcircumflex" format="2">
  <advance width="506"/>
  <unicode hex="0174"/>
  <outline>
    <contour>
      <point x="306" y="915" type="line"/>
      <point x="199" y="915" type="line"/>
      <point x="130" y="825" type="line"/>
      <point x="222" y="825" type="line"/>
      <point x="252" y="860" type="line"/>
      <point x="283" y="825" type="line"/>
      <point x="375" y="825" type="line"/>
    </contour>
    <contour>
      <point x="195" y="0" type="line"/>
      <point x="245" y="348" type="line"/>
      <point x="251" y="391" type="line"/>
      <point x="255" y="391" type="line"/>
      <point x="261" y="348" type="line"/>
      <point x="311" y="0" type="line"/>
      <point x="395" y="0" type="line"/>
      <point x="494" y="735" type="line"/>
      <point x="394" y="735" type="line"/>
      <point x="351" y="353" type="line"/>
      <point x="349" y="329" type="line"/>
      <point x="341" y="329" type="line"/>
      <point x="338" y="353" type="line"/>
      <point x="292" y="735" type="line"/>
      <point x="214" y="735" type="line"/>
      <point x="168" y="353" type="line"/>
      <point x="165" y="329" type="line"/>
      <point x="157" y="329" type="line"/>
      <point x="155" y="353" type="line"/>
      <point x="112" y="735" type="line"/>
      <point x="12" y="735" type="line"/>
      <point x="111" y="0" type="line"/>
    </contour>
  </outline>
</glyph>
<glyph name="Ycircumflex" format="2">
  <advance width="342"/>
  <unicode hex="0176"/>
  <outline>
    <contour>
      <point x="226" y="915" type="line"/>
      <point x="119" y="915" type="line"/>
      <point x="50" y="825" type="line"/>
      <point x="142" y="825" type="line"/>
      <point x="172" y="860" type="line"/>
      <point x="203" y="825" type="line"/>
      <point x="295" y="825" type="line"/>
    </contour>
    <contour>
      <point x="167" y="500" type="line"/>
      <point x="113" y="735" type="line"/>
      <point x="7" y="735" type="line"/>
      <point x="117" y="313" type="line"/>
      <point x="117" y="0" type="line"/>
      <point x="225" y="0" type="line"/>
      <point x="225" y="313" type="line"/>
      <point x="335" y="735" type="line"/>
      <point x="229" y="735" type="line"/>
      <point x="175" y="500" type="line"/>
      <point x="172" y="493" type="line"/>
      <point x="170" y="493" type="line"/>
    </contour>
  </outline>
</glyph>
<glyph name="Zdotaccent" format="2">
  <advance width="306"/>
  <unicode hex="017B"/>
  <outline>
    <contour>
      <point x="104" y="923" type="line"/>
      <point x="104" y="822" type="line"/>
      <point x="205" y="822" type="line"/>
      <point x="205" y="923" type="line"/>
    </contour>
    <contour>
      <point x="10" y="116" type="line"/>
      <point x="10" y="0" type="line"/>
      <point x="296" y="0" type="line"/>
      <point x="296" y="107" type="line"/>
      <point x="124" y="107" type="line"/>
      <point x="296" y="628" type="line"/>
      <point x="296" y="735" type="line"/>
      <point x="34" y="735" type="line"/>
      <point x="34" y="628" type="line"/>
      <point x="179" y="628" type="line"/>
    </contour>
  </outline>
</glyph>
<glyph name="longs" format="2">
  <advance width="232"/>
  <unicode hex="017F"/>
  <outline>
    <contour>
      <point x="18" y="0" type="line"/>
      <point x="95" y="0" type="line"/>
      <point x="95" y="565" type="line" smooth="yes"/>
      <point x="95" y="628"/>
      <point x="113" y="645"/>
      <point x="161" y="645" type="curve" smooth="yes"/>
      <point x="176" y="645"/>
      <point x="190" y="644"/>
      <point x="204" y="641" type="curve"/>
      <point x="216" y="719" type="line"/>
      <point x="190" y="724"/>
      <point x="166" y="727"/>
      <point x="145" y="727" type="curve" smooth="yes"/>
      <point x="70" y="727"/>
      <point x="18" y="694"/>
      <point x="18" y="573" type="curve" smooth="yes"/>
    </contour>
  </outline>
</glyph>
<glyph name="uni021A" format="2">
  <advance width="316"/>
  <unicode hex="021A"/>
  <outline>
    <contour>
      <point x="2" y="624" type="line"/>
      <point x="104" y="624" type="line"/>
      <point x="104" y="0" type="line"/>
      <point x="212" y="0" type="line"/>
      <point x="212" y="624" type="line"/>
      <point x="314" y="624" type="line"/>
      <point x="314" y="735" type="line"/>
      <point x="2" y="735" type="line"/>
    </contour>
    <contour>
      <point x="215" y="-123" type="line"/>
      <point x="215" y="-54" type="line"/>
      <point x="131" y="-54" type="line"/>
      <point x="131" y="-123" type="line"/>
      <point x="162" y="-123" type="line"/>
      <point x="142" y="-188" type="line"/>
      <point x="193" y="-188" type="line"/>
    </contour>
  </outline>
</glyph>
<glyph name="circumflex" format="2">
  <advance width="499"/>
  <unicode hex="02C6"/>
  <outline>
    <contour>
      <point x="303" y="727" type="line"/>
      <point x="196" y="727" type="line"/>
      <point x="127" y="637" type="line"/>
      <point x="219" y="637" type="line"/>
      <point x="249" y="672" type="line"/>
      <point x="280" y="637" type="line"/>
      <point x="372" y="637" type="line"/>
    </contour>
  </outline>
</glyph>
<glyph name="breve" format="2">
  <advance width="500"/>
  <unicode hex="02D8"/>
  <outline>
    <contour>
      <point x="360" y="683" type="curve"/>
      <point x="308" y="729" type="line"/>
      <point x="304" y="724"/>
      <point x="299" y="720"/>
      <point x="293" y="717" type="curve" smooth="yes"/>
      <point x="282" y="710"/>
      <point x="269" y="706"/>
      <point x="250" y="706" type="curve" smooth="yes"/>
      <point x="241" y="706"/>
      <point x="233" y="707"/>
      <point x="226" y="709" type="curve" smooth="yes"/>
      <point x="212" y="713"/>
      <point x="201" y="720"/>
      <point x="194" y="729" type="curve"/>
      <point x="140" y="683" type="line"/>
      <point x="148" y="674"/>
      <point x="158" y="666"/>
      <point x="169" y="659" type="curve" smooth="yes"/>
      <point x="188" y="647"/>
      <point x="215" y="636"/>
      <point x="250" y="636" type="curve" smooth="yes"/>
      <point x="267" y="636"/>
      <point x="283" y="638"/>
      <point x="296" y="643" type="curve" smooth="yes"/>
      <point x="323" y="652"/>
      <point x="343" y="666"/>
    </contour>
  </outline>
</glyph>
<glyph name="ring" format="2">
  <advance width="499"/>
  <unicode hex="02DA"/>
  <outline>
    <contour>
      <point x="175" y="694" type="curve" smooth="yes"/>
      <point x="175" y="653"/>
      <point x="209" y="624"/>
      <point x="250" y="624" type="curve" smooth="yes"/>
      <point x="291" y="624"/>
      <point x="324" y="653"/>
      <point x="324" y="694" type="curve" smooth="yes"/>
      <point x="324" y="735"/>
      <point x="291" y="764"/>
      <point x="250" y="764" type="curve" smooth="yes"/>
      <point x="209" y="764"/>
      <point x="175" y="735"/>
    </contour>
    <contour>
      <point x="213" y="694" type="curve" smooth="yes"/>
      <point x="213" y="713"/>
      <point x="231" y="729"/>
      <point x="250" y="729" type="curve" smooth="yes"/>
      <point x="269" y="729"/>
      <point x="287" y="713"/>
      <point x="287" y="694" type="curve" smooth="yes"/>
      <point x="287" y="675"/>
      <point x="269" y="659"/>
      <point x="250" y="659" type="curve" smooth="yes"/>
      <point x="231" y="659"/>
      <point x="213" y="675"/>
    </contour>
  </outline>
</glyph>
<glyph name="tilde" format="2">
  <advance width="500"/>
  <unicode hex="02DC"/>
  <outline>
    <contour>
      <point x="153" y="711" type="curve"/>
      <point x="153" y="637" type="line"/>
      <point x="158" y="640"/>
      <point x="163" y="642"/>
      <point x="169" y="645" type="curve" smooth="yes"/>
      <point x="180" y="649"/>
      <point x="191" y="653"/>
      <point x="206" y="653" type="curve" smooth="yes"/>
      <point x="222" y="652"/>
      <point x="237" y="649"/>
      <point x="251" y="643" type="curve" smooth="yes"/>
      <point x="264" y="637"/>
      <point x="279" y="634"/>
      <point x="294" y="634" type="curve" smooth="yes"/>
      <point x="301" y="634"/>
      <point x="308" y="635"/>
      <point x="314" y="637" type="curve" smooth="yes"/>
      <point x="326" y="640"/>
      <point x="338" y="645"/>
      <point x="347" y="653" type="curve"/>
      <point x="347" y="727" type="line"/>
      <point x="342" y="724"/>
      <point x="337" y="722"/>
      <point x="331" y="719" type="curve" smooth="yes"/>
      <point x="320" y="715"/>
      <point x="309" y="711"/>
      <point x="294" y="711" type="curve" smooth="yes"/>
      <point x="279" y="712"/>
      <point x="264" y="716"/>
      <point x="250" y="722" type="curve" smooth="yes"/>
      <point x="236" y="727"/>
      <point x="221" y="730"/>
      <point x="206" y="730" type="curve" smooth="yes"/>
      <point x="199" y="730"/>
      <point x="192" y="729"/>
      <point x="186" y="727" type="curve" smooth="yes"/>
      <point x="174" y="723"/>
      <point x="162" y="718"/>
    </contour>
  </outline>
</glyph>
<glyph name="hungarumlaut" format="2">
  <advance width="500"/>
  <unicode hex="02DD"/>
  <outline>
    <contour>
      <point x="262" y="727" type="line"/>
      <point x="157" y="727" type="line"/>
      <point x="105" y="637" type="line"/>
      <point x="183" y="637" type="line"/>
    </contour>
    <contour>
      <point x="410" y="727" type="line"/>
      <point x="305" y="727" type="line"/>
      <point x="253" y="637" type="line"/>
      <point x="331" y="637" type="line"/>
    </contour>
  </outline>
</glyph>
<glyph name="endash" format="2">
  <advance width="394"/>
  <unicode hex="2013"/>
  <outline>
    <contour>
      <point x="36" y="412" type="line"/>
      <point x="36" y="317" type="line"/>
      <point x="358" y="317" type="line"/>
      <point x="358" y="412" type="line"/>
    </contour>
  </outline>
</glyph>
<glyph name="quoteleft" format="2">
  <advance width="151"/>
  <unicode hex="2018"/>
  <outline>
    <contour>
      <point x="24" y="605" type="line"/>
      <point x="24" y="494" type="line"/>
      <point x="129" y="494" type="line"/>
      <point x="129" y="605" type="line"/>
      <point x="94" y="605" type="line"/>
      <point x="129" y="735" type="line"/>
      <point x="79" y="735" type="line"/>
    </contour>
  </outline>
</glyph>
<glyph name="quoteright" format="2">
  <advance width="151"/>
  <unicode hex="2019"/>
  <outline>
    <contour>
      <point x="127" y="624" type="line"/>
      <point x="127" y="735" type="line"/>
      <point x="22" y="735" type="line"/>
      <point x="22" y="624" type="line"/>
      <point x="57" y="624" type="line"/>
      <point x="22" y="494" type="line"/>
      <point x="72" y="494" type="line"/>
    </contour>
  </outline>
</glyph>
<glyph name="quotesinglbase" format="2">
  <advance width="151"/>
  <unicode hex="201A"/>
  <outline>
    <contour>
      <point x="127" y="0" type="line"/>
      <point x="127" y="111" type="line"/>
      <point x="22" y="111" type="line"/>
      <point x="22" y="0" type="line"/>
      <point x="57" y="0" type="line"/>
      <point x="22" y="-130" type="line"/>
      <point x="72" y="-130" type="line"/>
    </contour>
  </outline>
</glyph>
<glyph name="quotedblright" format="2">
  <advance width="305"/>
  <unicode hex="201D"/>
  <outline>
    <contour>
      <point x="131" y="624" type="line"/>
      <point x="131" y="735" type="line"/>
      <point x="26" y="735" type="line"/>
      <point x="26" y="624" type="line"/>
      <point x="61" y="624" type="line"/>
      <point x="26" y="494" type="line"/>
      <point x="76" y="494" type="line"/>
    </contour>
    <contour>
      <point x="279" y="624" type="line"/>
      <point x="279" y="735" type="line"/>
      <point x="174" y="735" type="line"/>
      <point x="174" y="624" type="line"/>
      <point x="209" y="624" type="line"/>
      <point x="174" y="494" type="line"/>
      <point x="224" y="494" type="line"/>
    </contour>
  </outline>
</glyph>
<glyph name="uni201F" format="2">
  <advance width="305"/>
  <unicode hex="201F"/>
  <outline>
    <contour>
      <point x="131" y="735" type="line"/>
      <point x="26" y="735" type="line"/>
      <point x="26" y="624" type="line"/>
      <point x="81" y="494" type="line"/>
      <point x="131" y="494" type="line"/>
      <point x="96" y="624" type="line"/>
      <point x="131" y="624" type="line"/>
    </contour>
    <contour>
      <point x="279" y="735" type="line"/>
      <point x="174" y="735" type="line"/>
      <point x="174" y="624" type="line"/>
      <point x="229" y="494" type="line"/>
      <point x="279" y="494" type="line"/>
      <point x="244" y="624" type="line"/>
      <point x="279" y="624" type="line"/>
    </contour>
  </outline>
</glyph>
<glyph name="bullet" format="2">
  <advance width="324"/>
  <unicode hex="2022"/>
  <outline>
    <contour>
      <point x="40" y="399" type="curve" smooth="yes"/>
      <point x="40" y="364"/>
      <point x="54" y="334"/>
      <point x="76" y="312" type="curve" smooth="yes"/>
      <point x="98" y="290"/>
      <point x="128" y="276"/>
      <point x="163" y="276" type="curve" smooth="yes"/>
      <point x="196" y="276"/>
      <point x="227" y="290"/>
      <point x="249" y="312" type="curve" smooth="yes"/>
      <point x="271" y="334"/>
      <point x="284" y="364"/>
      <point x="284" y="399" type="curve" smooth="yes"/>
      <point x="284" y="432"/>
      <point x="271" y="463"/>
      <point x="249" y="485" type="curve" smooth="yes"/>
      <point x="227" y="507"/>
      <point x="196" y="520"/>
      <point x="163" y="520" type="curve" smooth="yes"/>
      <point x="128" y="520"/>
      <point x="98" y="507"/>
      <point x="76" y="485" type="curve" smooth="yes"/>
      <point x="54" y="463"/>
      <point x="40" y="432"/>
    </contour>
  </outline>
</glyph>
<glyph name="fi" format="2">
  <advance width="377"/>
  <unicode hex="FB01"/>
  <outline>
    <contour>
      <point x="236" y="0" type="line"/>
      <point x="337" y="0" type="line"/>
      <point x="337" y="547" type="line"/>
      <point x="162" y="547" type="line"/>
      <point x="162" y="561" type="line" smooth="yes"/>
      <point x="162" y="567"/>
      <point x="162" y="575"/>
      <point x="162" y="586" type="curve" smooth="yes"/>
      <point x="162" y="596"/>
      <point x="163" y="606"/>
      <point x="166" y="616" type="curve" smooth="yes"/>
      <point x="171" y="635"/>
      <point x="180" y="651"/>
      <point x="203" y="651" type="curve" smooth="yes"/>
      <point x="220" y="651"/>
      <point x="234" y="649"/>
      <point x="243" y="648" type="curve" smooth="yes"/>
      <point x="248" y="647"/>
      <point x="253" y="646"/>
      <point x="257" y="645" type="curve"/>
      <point x="257" y="735" type="line"/>
      <point x="250" y="736"/>
      <point x="242" y="737"/>
      <point x="235" y="738" type="curve" smooth="yes"/>
      <point x="222" y="741"/>
      <point x="204" y="742"/>
      <point x="185" y="742" type="curve" smooth="yes"/>
      <point x="122" y="742"/>
      <point x="91" y="712"/>
      <point x="76" y="674" type="curve" smooth="yes"/>
      <point x="60" y="636"/>
      <point x="61" y="590"/>
      <point x="61" y="562" type="curve" smooth="yes"/>
      <point x="61" y="547" type="line"/>
      <point x="10" y="547" type="line"/>
      <point x="10" y="456" type="line"/>
      <point x="61" y="456" type="line"/>
      <point x="61" y="0" type="line"/>
      <point x="162" y="0" type="line"/>
      <point x="162" y="456" type="line"/>
      <point x="236" y="456" type="line"/>
    </contour>
  </outline>
</glyph>
